<svg xmlns="http://www.w3.org/2000/svg" viewBox="0 0 116 116"><rect width="116" height="116" fill="#750000"></rect><g stroke="#f8f0bc" stroke-width="1" fill-opacity="0.3"><path fill="#276293" d="M0,0h32v8h-12v0v4h-8v-4h0h-12z"></path><path fill="#058d6d" d="M32,0h8v12h-12v-4h4v0z"></path><path fill="#34d982" d="M40,0h16v12h-16z"></path><path fill="#406c3a" d="M56,0h8v12h-8z"></path><path fill="#7c19de" d="M64,0h8v20h-4v0v4h-4v-8h0h-4v-4h4v0z"></path><path fill="#130198" d="M72,0h20v4h0h4v4h-24z"></path><path fill="#69d8e9" d="M92,0h20v4h-4v0v16h-4v-4h0h-4v-4h0h-4v-8h0h-4z"></path><path fill="#dd646a" d="M112,0h4v20h-8v-16h4v0z"></path><path fill="#61611f" d="M0,8h12v4h0h4v20h-8v-4h0h-8z"></path><path fill="#aa2b51" d="M20,8h8v8h0h4v4h-4v0v4h-4v0v12h-4v-4h0h-4v-20h4v0z"></path><path fill="#c545a5" d="M72,8h8v12h-8z"></path><path fill="#d7d9fc" d="M80,8h16v8h-8v0v4h-8z"></path><path fill="#134706" d="M28,12h12v8h-4v-4h0h-8z"></path><path fill="#44c830" d="M40,12h8v4h-8z"></path><path fill="#ef731f" d="M48,12h8v4h-8z"></path><path fill="#a1b036" d="M56,12h4v4h0h4v12h-4v0v4h-4z"></path><path fill="#cb1559" d="M96,12h4v4h0h4v4h0h4v8h-4v0v4h-8z"></path><path fill="#cacb65" d="M32,16h4v4h0h4v12h-16v-8h4v0v-4h4v0z"></path><path fill="#6c5a22" d="M40,16h12v8h-8v-4h0h-4z"></path><path fill="#960a23" d="M52,16h4v12h-4z"></path><path fill="#13d4d2" d="M88,16h8v12h-4v0v4h-8v-12h4v0z"></path><path fill="#d9bbf8" d="M40,20h4v4h0h8v4h-12z"></path><path fill="#7d61cb" d="M68,20h16v12h-4v0v4h-8v-4h0h-4v-4h0h-4v-4h4v0z"></path><path fill="#042c67" d="M108,20h8v12h-12v-4h4v0z"></path><path fill="#3a4b92" d="M0,28h8v4h0h12v12h-4v0v4h-4v0v4h-8v-4h0h-4z"></path><path fill="#fc2d91" d="M40,28h8v12h-8v-4h0h-4v-4h4v0z"></path><path fill="#686890" d="M48,28h8v4h0h4v4h-4v0v4h-4v0v4h-4z"></path><path fill="#ae1db0" d="M60,28h8v4h0h4v8h0h4v4h-4v0v4h-4v0v4h-4v0v4h-4v-8h0h-4v-4h0h-4v-4h4v0v-4h4v0z"></path><path fill="#d317bc" d="M92,28h4v4h0h8v4h-4v0v8h-4v0v4h-4v-4h0h-4v-8h0h-4v-4h8v0z"></path><path fill="#2cc90a" d="M24,32h12v4h0h4v8h-4v0v8h-4v-4h0h-8v-4h0h-4v-8h4v0z"></path><path fill="#ea8d30" d="M80,32h4v4h0h4v12h-4v0v4h-4v-4h0h-4v-8h0h-4v-4h8v0z"></path><path fill="#c2414e" d="M104,32h8v8h-12v-4h4v0z"></path><path fill="#c817bc" d="M112,32h4v12h-4z"></path><path fill="#8a5b1b" d="M40,40h8v8h-8z"></path><path fill="#a9d14e" d="M100,40h12v4h0h4v8h-4v0v4h-8v-4h0h-4v-4h0h-4v-4h4v0z"></path><path fill="#30eb99" d="M16,44h8v12h-16v-4h4v0v-4h4v0z"></path><path fill="#bde1d1" d="M36,44h4v8h-4z"></path><path fill="#b1ea22" d="M48,44h8v4h0h4v12h-8v-8h0h-4z"></path><path fill="#46d832" d="M72,44h4v4h0h4v20h-4v0v4h-8v-4h0h-4v-8h0h-4v-4h4v0v-4h4v0v-4h4v0z"></path><path fill="#997d38" d="M88,44h4v4h0h4v12h-4v0v4h-12v-12h4v0v-4h4v0z"></path><path fill="#65fa8e" d="M0,48h4v4h0h4v4h0h4v4h-8v0v4h-4z"></path><path fill="#42c6ab" d="M24,48h8v4h0h4v4h-4v0v4h-4v-4h0h-4z"></path><path fill="#855b53" d="M40,48h4v12h-4v-4h0h-4v-4h4v0z"></path><path fill="#60dc89" d="M44,48h4v4h0h4v4h-8z"></path><path fill="#89bc1f" d="M96,48h4v4h0h4v16h-8v-4h0h-4v-4h4v0z"></path><path fill="#387d11" d="M112,52h4v12h-4v-4h0h-8v-4h8v0z"></path><path fill="#c5ecc3" d="M12,56h16v4h-4v0v4h-8v-4h0h-4z"></path><path fill="#ba7cb9" d="M32,56h8v8h-4v0v4h-12v-8h8v0z"></path><path fill="#6b05a8" d="M44,56h8v4h0h12v4h-16v0v4h-4v-4h0h-4v-4h4v0z"></path><path fill="#29aad9" d="M4,60h4v4h-4z"></path><path fill="#75085f" d="M8,60h8v4h0h8v4h-8v0v4h-4v0v8h-4v-12h0h-4v-4h4v0z"></path><path fill="#9748dc" d="M104,60h8v4h-8z"></path><path fill="#7099e8" d="M0,64h4v4h0h4v8h-8z"></path><path fill="#264721" d="M36,64h8v4h0h4v8h-16v-4h0h-4v-4h8v0z"></path><path fill="#1ebc04" d="M48,64h16v4h0h4v4h-12v0v4h-8z"></path><path fill="#6e5c49" d="M80,64h16v4h0h12v4h-4v0v4h-4v0v4h-4v0v4h-4v-4h0h-4v-4h0h-4v-4h0h-4z"></path><path fill="#408b7b" d="M104,64h12v8h-8v-4h0h-4z"></path><path fill="#1d7e5c" d="M16,68h8v8h-4v0v8h-4v-4h0h-4v-8h4v0z"></path><path fill="#c4eeaa" d="M24,68h4v4h0h4v12h-4v0v4h-4v-4h0h-4v-8h4v0z"></path><path fill="#f23f54" d="M76,68h4v4h0h4v12h-4v0v4h-4v-4h0h-8v-12h8v0z"></path><path fill="#a67acd" d="M56,72h12v12h0h4v4h-4v0v4h-4v0v4h-4v0v4h-4z"></path><path fill="#c19762" d="M104,72h12v4h-12z"></path><path fill="#34bb83" d="M0,76h4v8h-4z"></path><path fill="#5c367b" d="M4,76h4v4h0h4v8h-4v0v4h-8v-8h4v0z"></path><path fill="#0775e5" d="M32,76h20v4h-4v0v4h-4v0v4h-4v-4h0h-8z"></path><path fill="#0a1deb" d="M52,76h4v24h-4v-4h0h-4v-8h0h-4v-4h4v0v-4h4v0z"></path><path fill="#931e45" d="M84,76h4v4h0h4v4h0h4v4h-12z"></path><path fill="#bd1c50" d="M100,76h16v16h-4v-4h0h-4v-4h0h-4v-4h0h-4z"></path><path fill="#001175" d="M12,80h4v4h0h4v8h-8z"></path><path fill="#bab83c" d="M96,80h8v4h0h4v4h0h4v8h-4v0v4h-8v-4h0h-4v-4h0h-4v-4h4v0z"></path><path fill="#d14edc" d="M20,84h4v4h0h4v4h0h4v8h-4v0v8h-4v0v8h-4v-8h0h-4v-8h0h-4v-4h4v0v-4h4v0z"></path><path fill="#72e6a6" d="M28,84h12v4h0h8v4h-4v0v4h-4v0v4h-4v-4h0h-4v-4h0h-4z"></path><path fill="#6bfa56" d="M72,84h4v12h-12v-4h4v0v-4h4v0z"></path><path fill="#f70f8a" d="M80,84h4v8h-8v-4h4v0z"></path><path fill="#d7d3b5" d="M8,88h4v4h0h4v4h-4v0v4h-4v-4h0h-8v-4h8v0z"></path><path fill="#738fa9" d="M84,88h8v4h0h4v4h-4v0v4h-4v0v16h-4v-20h0h-4v-4h4v0z"></path><path fill="#e7b0f2" d="M44,92h4v4h0h4v4h0h4v4h-16v-8h4v0z"></path><path fill="#8520bd" d="M76,92h4v4h0h4v20h-8v-16h0h-16v-4h16v0z"></path><path fill="#e05bba" d="M112,92h4v20h-16v-4h4v0v-4h4v0v-8h4v0z"></path><path fill="#c01a76" d="M0,96h8v4h0h8v4h-8v0v4h-8z"></path><path fill="#d7ea80" d="M32,96h4v4h0h4v4h-12v-4h4v0z"></path><path fill="#6c56cf" d="M92,96h8v4h0h8v4h-4v0v4h-4v0v4h-4v0v4h-8v-16h4v0z"></path><path fill="#b6bf00" d="M56,100h4v4h0h4v4h0h4v4h-16v-8h4v0z"></path><path fill="#c57238" d="M60,100h16v16h-4v-4h0h-4v-4h0h-4v-4h0h-4z"></path><path fill="#d22be0" d="M8,104h8v4h0h4v8h-20v-8h8v0z"></path><path fill="#c40580" d="M28,104h12v12h-16v-8h4v0z"></path><path fill="#45a61c" d="M40,104h4v12h-4z"></path><path fill="#05d674" d="M44,104h8v8h-4v0v4h-4z"></path><path fill="#7c54be" d="M48,112h24v4h-24z"></path><path fill="#67e3d7" d="M96,112h20v4h-20z"></path></g><path fill="#f8f0bc" d="M0,0h4v4h-4zM4,0h4v4h-4zM8,0h4v4h-4zM12,0h4v4h-4zM16,0h4v4h-4zM20,0h4v4h-4zM24,0h4v4h-4zM28,0h4v4h-4zM32,0h4v4h-4zM36,0h4v4h-4zM40,0h4v4h-4zM44,0h4v4h-4zM48,0h4v4h-4zM52,0h4v4h-4zM56,0h4v4h-4zM60,0h4v4h-4zM64,0h4v4h-4zM68,0h4v4h-4zM72,0h4v4h-4zM76,0h4v4h-4zM80,0h4v4h-4zM84,0h4v4h-4zM88,0h4v4h-4zM92,0h4v4h-4zM96,0h4v4h-4zM100,0h4v4h-4zM104,0h4v4h-4zM108,0h4v4h-4zM112,0h4v4h-4zM0,4h4v4h-4zM4,4h4v4h-4zM8,4h4v4h-4zM12,4h4v4h-4zM16,4h4v4h-4zM20,4h4v4h-4zM24,4h4v4h-4zM28,4h4v4h-4zM32,4h4v4h-4zM36,4h4v4h-4zM40,4h4v4h-4zM44,4h4v4h-4zM48,4h4v4h-4zM52,4h4v4h-4zM56,4h4v4h-4zM60,4h4v4h-4zM64,4h4v4h-4zM68,4h4v4h-4zM72,4h4v4h-4zM76,4h4v4h-4zM80,4h4v4h-4zM84,4h4v4h-4zM88,4h4v4h-4zM92,4h4v4h-4zM96,4h4v4h-4zM100,4h4v4h-4zM104,4h4v4h-4zM108,4h4v4h-4zM112,4h4v4h-4zM0,8h4v4h-4zM4,8h4v4h-4zM36,8h4v4h-4zM40,8h4v4h-4zM44,8h4v4h-4zM48,8h4v4h-4zM52,8h4v4h-4zM56,8h4v4h-4zM68,8h4v4h-4zM76,8h4v4h-4zM108,8h4v4h-4zM112,8h4v4h-4zM0,12h4v4h-4zM4,12h4v4h-4zM12,12h4v4h-4zM16,12h4v4h-4zM20,12h4v4h-4zM24,12h4v4h-4zM28,12h4v4h-4zM36,12h4v4h-4zM40,12h4v4h-4zM48,12h4v4h-4zM52,12h4v4h-4zM60,12h4v4h-4zM64,12h4v4h-4zM76,12h4v4h-4zM84,12h4v4h-4zM88,12h4v4h-4zM92,12h4v4h-4zM96,12h4v4h-4zM100,12h4v4h-4zM108,12h4v4h-4zM112,12h4v4h-4zM0,16h4v4h-4zM4,16h4v4h-4zM12,16h4v4h-4zM28,16h4v4h-4zM36,16h4v4h-4zM52,16h4v4h-4zM56,16h4v4h-4zM60,16h4v4h-4zM68,16h4v4h-4zM72,16h4v4h-4zM76,16h4v4h-4zM84,16h4v4h-4zM100,16h4v4h-4zM108,16h4v4h-4zM112,16h4v4h-4zM0,20h4v4h-4zM4,20h4v4h-4zM12,20h4v4h-4zM28,20h4v4h-4zM36,20h4v4h-4zM48,20h4v4h-4zM52,20h4v4h-4zM56,20h4v4h-4zM68,20h4v4h-4zM72,20h4v4h-4zM76,20h4v4h-4zM84,20h4v4h-4zM100,20h4v4h-4zM108,20h4v4h-4zM112,20h4v4h-4zM0,24h4v4h-4zM4,24h4v4h-4zM12,24h4v4h-4zM28,24h4v4h-4zM36,24h4v4h-4zM44,24h4v4h-4zM56,24h4v4h-4zM64,24h4v4h-4zM68,24h4v4h-4zM76,24h4v4h-4zM84,24h4v4h-4zM100,24h4v4h-4zM108,24h4v4h-4zM112,24h4v4h-4zM0,28h4v4h-4zM4,28h4v4h-4zM12,28h4v4h-4zM16,28h4v4h-4zM20,28h4v4h-4zM24,28h4v4h-4zM28,28h4v4h-4zM36,28h4v4h-4zM44,28h4v4h-4zM52,28h4v4h-4zM56,28h4v4h-4zM60,28h4v4h-4zM72,28h4v4h-4zM76,28h4v4h-4zM84,28h4v4h-4zM88,28h4v4h-4zM92,28h4v4h-4zM96,28h4v4h-4zM100,28h4v4h-4zM108,28h4v4h-4zM112,28h4v4h-4zM0,32h4v4h-4zM4,32h4v4h-4zM36,32h4v4h-4zM44,32h4v4h-4zM52,32h4v4h-4zM60,32h4v4h-4zM68,32h4v4h-4zM76,32h4v4h-4zM108,32h4v4h-4zM112,32h4v4h-4zM0,36h4v4h-4zM4,36h4v4h-4zM8,36h4v4h-4zM12,36h4v4h-4zM16,36h4v4h-4zM20,36h4v4h-4zM24,36h4v4h-4zM28,36h4v4h-4zM32,36h4v4h-4zM36,36h4v4h-4zM52,36h4v4h-4zM56,36h4v4h-4zM60,36h4v4h-4zM64,36h4v4h-4zM68,36h4v4h-4zM76,36h4v4h-4zM80,36h4v4h-4zM84,36h4v4h-4zM88,36h4v4h-4zM92,36h4v4h-4zM96,36h4v4h-4zM100,36h4v4h-4zM104,36h4v4h-4zM108,36h4v4h-4zM112,36h4v4h-4zM0,40h4v4h-4zM4,40h4v4h-4zM12,40h4v4h-4zM36,40h4v4h-4zM40,40h4v4h-4zM44,40h4v4h-4zM56,40h4v4h-4zM68,40h4v4h-4zM72,40h4v4h-4zM76,40h4v4h-4zM100,40h4v4h-4zM104,40h4v4h-4zM108,40h4v4h-4zM112,40h4v4h-4zM0,44h4v4h-4zM4,44h4v4h-4zM8,44h4v4h-4zM12,44h4v4h-4zM20,44h4v4h-4zM24,44h4v4h-4zM32,44h4v4h-4zM44,44h4v4h-4zM48,44h4v4h-4zM52,44h4v4h-4zM60,44h4v4h-4zM64,44h4v4h-4zM68,44h4v4h-4zM72,44h4v4h-4zM80,44h4v4h-4zM88,44h4v4h-4zM92,44h4v4h-4zM96,44h4v4h-4zM104,44h4v4h-4zM108,44h4v4h-4zM112,44h4v4h-4zM0,48h4v4h-4zM4,48h4v4h-4zM20,48h4v4h-4zM28,48h4v4h-4zM36,48h4v4h-4zM40,48h4v4h-4zM52,48h4v4h-4zM56,48h4v4h-4zM60,48h4v4h-4zM76,48h4v4h-4zM88,48h4v4h-4zM96,48h4v4h-4zM108,48h4v4h-4zM112,48h4v4h-4zM0,52h4v4h-4zM4,52h4v4h-4zM8,52h4v4h-4zM16,52h4v4h-4zM24,52h4v4h-4zM32,52h4v4h-4zM40,52h4v4h-4zM48,52h4v4h-4zM56,52h4v4h-4zM60,52h4v4h-4zM76,52h4v4h-4zM80,52h4v4h-4zM84,52h4v4h-4zM88,52h4v4h-4zM92,52h4v4h-4zM96,52h4v4h-4zM100,52h4v4h-4zM108,52h4v4h-4zM112,52h4v4h-4zM0,56h4v4h-4zM4,56h4v4h-4zM8,56h4v4h-4zM12,56h4v4h-4zM20,56h4v4h-4zM24,56h4v4h-4zM40,56h4v4h-4zM44,56h4v4h-4zM72,56h4v4h-4zM92,56h4v4h-4zM108,56h4v4h-4zM112,56h4v4h-4zM0,60h4v4h-4zM4,60h4v4h-4zM12,60h4v4h-4zM20,60h4v4h-4zM32,60h4v4h-4zM36,60h4v4h-4zM40,60h4v4h-4zM48,60h4v4h-4zM52,60h4v4h-4zM68,60h4v4h-4zM76,60h4v4h-4zM80,60h4v4h-4zM88,60h4v4h-4zM96,60h4v4h-4zM104,60h4v4h-4zM108,60h4v4h-4zM112,60h4v4h-4zM0,64h4v4h-4zM4,64h4v4h-4zM12,64h4v4h-4zM24,64h4v4h-4zM28,64h4v4h-4zM36,64h4v4h-4zM40,64h4v4h-4zM48,64h4v4h-4zM52,64h4v4h-4zM56,64h4v4h-4zM64,64h4v4h-4zM96,64h4v4h-4zM108,64h4v4h-4zM112,64h4v4h-4zM0,68h4v4h-4zM4,68h4v4h-4zM12,68h4v4h-4zM16,68h4v4h-4zM20,68h4v4h-4zM28,68h4v4h-4zM32,68h4v4h-4zM36,68h4v4h-4zM40,68h4v4h-4zM44,68h4v4h-4zM56,68h4v4h-4zM60,68h4v4h-4zM64,68h4v4h-4zM76,68h4v4h-4zM80,68h4v4h-4zM92,68h4v4h-4zM96,68h4v4h-4zM100,68h4v4h-4zM108,68h4v4h-4zM112,68h4v4h-4zM0,72h4v4h-4zM4,72h4v4h-4zM12,72h4v4h-4zM28,72h4v4h-4zM44,72h4v4h-4zM52,72h4v4h-4zM68,72h4v4h-4zM92,72h4v4h-4zM100,72h4v4h-4zM104,72h4v4h-4zM108,72h4v4h-4zM112,72h4v4h-4zM0,76h4v4h-4zM4,76h4v4h-4zM8,76h4v4h-4zM12,76h4v4h-4zM16,76h4v4h-4zM20,76h4v4h-4zM24,76h4v4h-4zM28,76h4v4h-4zM32,76h4v4h-4zM36,76h4v4h-4zM56,76h4v4h-4zM64,76h4v4h-4zM76,76h4v4h-4zM80,76h4v4h-4zM84,76h4v4h-4zM96,76h4v4h-4zM100,76h4v4h-4zM104,76h4v4h-4zM108,76h4v4h-4zM112,76h4v4h-4zM0,80h4v4h-4zM4,80h4v4h-4zM36,80h4v4h-4zM40,80h4v4h-4zM48,80h4v4h-4zM52,80h4v4h-4zM60,80h4v4h-4zM64,80h4v4h-4zM68,80h4v4h-4zM76,80h4v4h-4zM84,80h4v4h-4zM92,80h4v4h-4zM108,80h4v4h-4zM112,80h4v4h-4zM0,84h4v4h-4zM4,84h4v4h-4zM12,84h4v4h-4zM16,84h4v4h-4zM20,84h4v4h-4zM24,84h4v4h-4zM28,84h4v4h-4zM36,84h4v4h-4zM44,84h4v4h-4zM56,84h4v4h-4zM60,84h4v4h-4zM64,84h4v4h-4zM68,84h4v4h-4zM76,84h4v4h-4zM80,84h4v4h-4zM84,84h4v4h-4zM96,84h4v4h-4zM100,84h4v4h-4zM104,84h4v4h-4zM108,84h4v4h-4zM112,84h4v4h-4zM0,88h4v4h-4zM4,88h4v4h-4zM12,88h4v4h-4zM28,88h4v4h-4zM36,88h4v4h-4zM92,88h4v4h-4zM100,88h4v4h-4zM104,88h4v4h-4zM108,88h4v4h-4zM112,88h4v4h-4zM0,92h4v4h-4zM4,92h4v4h-4zM12,92h4v4h-4zM28,92h4v4h-4zM36,92h4v4h-4zM44,92h4v4h-4zM56,92h4v4h-4zM60,92h4v4h-4zM64,92h4v4h-4zM68,92h4v4h-4zM72,92h4v4h-4zM84,92h4v4h-4zM108,92h4v4h-4zM112,92h4v4h-4zM0,96h4v4h-4zM4,96h4v4h-4zM12,96h4v4h-4zM28,96h4v4h-4zM36,96h4v4h-4zM48,96h4v4h-4zM52,96h4v4h-4zM60,96h4v4h-4zM72,96h4v4h-4zM80,96h4v4h-4zM84,96h4v4h-4zM88,96h4v4h-4zM100,96h4v4h-4zM108,96h4v4h-4zM112,96h4v4h-4zM0,100h4v4h-4zM4,100h4v4h-4zM12,100h4v4h-4zM16,100h4v4h-4zM20,100h4v4h-4zM24,100h4v4h-4zM28,100h4v4h-4zM36,100h4v4h-4zM40,100h4v4h-4zM56,100h4v4h-4zM60,100h4v4h-4zM76,100h4v4h-4zM96,100h4v4h-4zM100,100h4v4h-4zM108,100h4v4h-4zM112,100h4v4h-4zM0,104h4v4h-4zM4,104h4v4h-4zM36,104h4v4h-4zM44,104h4v4h-4zM64,104h4v4h-4zM68,104h4v4h-4zM72,104h4v4h-4zM76,104h4v4h-4zM80,104h4v4h-4zM108,104h4v4h-4zM112,104h4v4h-4zM0,108h4v4h-4zM4,108h4v4h-4zM8,108h4v4h-4zM12,108h4v4h-4zM16,108h4v4h-4zM20,108h4v4h-4zM24,108h4v4h-4zM28,108h4v4h-4zM32,108h4v4h-4zM36,108h4v4h-4zM40,108h4v4h-4zM44,108h4v4h-4zM48,108h4v4h-4zM52,108h4v4h-4zM56,108h4v4h-4zM60,108h4v4h-4zM64,108h4v4h-4zM68,108h4v4h-4zM72,108h4v4h-4zM76,108h4v4h-4zM80,108h4v4h-4zM84,108h4v4h-4zM88,108h4v4h-4zM92,108h4v4h-4zM96,108h4v4h-4zM100,108h4v4h-4zM104,108h4v4h-4zM108,108h4v4h-4zM112,108h4v4h-4zM0,112h4v4h-4zM4,112h4v4h-4zM8,112h4v4h-4zM12,112h4v4h-4zM16,112h4v4h-4zM20,112h4v4h-4zM24,112h4v4h-4zM28,112h4v4h-4zM32,112h4v4h-4zM36,112h4v4h-4zM40,112h4v4h-4zM44,112h4v4h-4zM48,112h4v4h-4zM52,112h4v4h-4zM56,112h4v4h-4zM60,112h4v4h-4zM64,112h4v4h-4zM68,112h4v4h-4zM72,112h4v4h-4zM76,112h4v4h-4zM80,112h4v4h-4zM84,112h4v4h-4zM88,112h4v4h-4zM92,112h4v4h-4zM96,112h4v4h-4zM100,112h4v4h-4zM104,112h4v4h-4zM108,112h4v4h-4zM112,112h4v4h-4z"></path></svg>