<svg xmlns="http://www.w3.org/2000/svg" viewBox="0 0 1100 1100"><rect width="1100" height="1100" fill="#2c2c2c"></rect><path fill="#ff7373" d="M421,81h18v118h-18zM521,81h138v18h-138zM501,101h98v18h-98zM441,121h18v78h-18zM721,141h18v38h-18zM761,141h18v38h-18zM381,161h18v38h-18zM601,161h18v58h-18zM621,221h18v38h-18zM481,241h18v58h-18zM541,241h18v18h-18zM861,241h18v458h-18zM241,261h18v218h-18zM581,321h38v18h-38zM581,341h18v18h-18zM921,341h18v58h-18zM901,361h18v98h-18zM281,401h18v38h-18zM341,401h18v38h-18zM441,401h38v18h-38zM541,401h18v18h-18zM641,401h18v18h-18zM301,421h38v18h-38zM421,421h18v18h-18zM661,421h18v18h-18zM321,441h18v18h-18zM401,441h18v58h-18zM481,441h18v18h-18zM521,441h18v38h-18zM541,461h78v18h-78zM741,461h38v18h-38zM541,481h58v18h-58zM681,481h18v78h-18zM361,501h18v18h-18zM381,521h18v38h-18zM281,541h18v18h-18zM341,541h38v18h-38zM421,541h58v18h-58zM501,541h18v38h-18zM541,541h58v18h-58zM561,561h18v18h-18zM721,561h18v18h-18zM181,601h18v38h-18zM301,601h18v118h-18zM501,601h38v58h-38zM821,601h18v18h-18zM261,621h18v78h-18zM341,621h58v58h-58zM541,621h78v18h-78zM721,641h18v158h-18zM161,681h18v78h-18zM621,681h18v18h-18zM181,701h18v138h-18zM241,701h18v38h-18zM481,721h38v98h-38zM801,721h18v38h-18zM581,741h38v18h-38zM281,761h18v18h-18zM401,761h58v38h-58zM761,781h18v18h-18zM221,801h18v78h-18zM261,801h18v218h-18zM601,801h38v58h-38zM821,801h18v298h-18zM281,841h18v198h-18zM321,841h18v258h-18zM861,941h18v118h-18zM481,961h18v138h-18zM181,981h18v58h-18zM881,981h58v38h-58zM381,1001h18v98h-18zM681,1001h18v98h-18zM921,1021h18v78h-18zM301,1081h18v18h-18zM861,1081h18v18h-18z"></path><path fill="#80f6ff" d="M621,101h98v98h-98zM721,121h38v18h-38zM461,141h18v38h-18zM521,141h38v18h-38zM581,141h18v38h-18zM281,161h38v38h-38zM561,161h18v78h-18zM741,161h18v38h-18zM781,161h38v38h-38zM261,181h18v358h-18zM821,181h18v18h-18zM841,201h18v138h-18zM781,241h18v118h-18zM501,301h38v18h-38zM621,301h18v18h-18zM621,341h18v38h-18zM201,361h38v38h-38zM481,361h18v18h-18zM181,401h38v38h-38zM381,421h18v18h-18zM481,421h38v18h-38zM581,421h58v38h-58zM781,421h18v58h-18zM361,441h18v18h-18zM161,481h58v18h-58zM721,481h18v38h-18zM601,501h18v38h-18zM641,541h38v18h-38zM461,561h38v18h-38zM521,561h18v18h-18zM741,581h58v18h-58zM481,621h18v18h-18zM141,641h18v38h-18zM941,641h18v138h-18zM581,661h38v38h-38zM921,681h18v278h-18zM841,701h18v38h-18zM641,741h38v38h-38zM701,741h18v38h-18zM221,761h18v18h-18zM521,761h18v18h-18zM861,761h18v158h-18zM321,781h18v18h-18zM681,781h18v58h-18zM141,801h38v18h-38zM421,801h38v38h-38zM641,821h18v38h-18zM441,841h18v18h-18zM761,841h38v138h-38zM301,861h18v198h-18zM221,901h18v198h-18zM561,901h78v38h-78zM881,921h18v38h-18zM601,941h38v158h-38zM501,1001h18v18h-18zM761,1021h18v58h-18zM881,1021h18v78h-18z"></path><path fill="#f1ffca" d="M461,81h38v38h-38zM381,101h38v18h-38zM521,121h58v18h-58zM601,121h18v18h-18zM321,141h18v38h-18zM341,161h18v38h-18zM361,181h18v18h-18zM401,181h18v18h-18zM581,201h18v38h-18zM301,221h138v18h-138zM661,221h138v18h-138zM821,221h18v78h-18zM221,241h18v38h-18zM421,241h18v118h-18zM601,241h18v18h-18zM661,241h18v118h-18zM201,261h18v58h-18zM341,261h58v58h-58zM881,261h18v18h-18zM181,301h18v38h-18zM221,301h18v38h-18zM501,321h18v78h-18zM821,321h18v258h-18zM321,341h98v18h-98zM681,341h98v18h-98zM841,361h18v318h-18zM521,381h18v18h-18zM661,381h98v18h-98zM221,421h18v138h-18zM721,421h18v18h-18zM281,461h18v38h-18zM761,481h18v38h-18zM901,481h18v118h-18zM781,501h38v18h-38zM881,501h18v158h-18zM201,521h18v138h-18zM501,521h38v18h-38zM261,561h18v18h-18zM601,561h18v18h-18zM301,581h138v18h-138zM481,581h18v18h-18zM721,601h18v18h-18zM741,621h18v58h-18zM901,621h18v18h-18zM641,641h38v18h-38zM481,661h18v38h-18zM641,661h18v18h-18zM781,661h18v118h-18zM821,661h18v78h-18zM501,681h38v38h-38zM141,701h18v38h-18zM681,701h38v38h-38zM901,701h18v18h-18zM261,721h18v38h-18zM581,721h98v18h-98zM201,741h18v78h-18zM281,741h178v18h-178zM881,741h38v38h-38zM321,761h38v18h-38zM361,781h18v38h-18zM881,781h18v98h-18zM381,801h18v38h-18zM701,801h18v38h-18zM901,801h18v158h-18zM941,801h18v298h-18zM141,821h18v278h-18zM281,821h38v18h-38zM401,821h18v18h-18zM801,821h18v98h-18zM481,841h18v18h-18zM181,861h18v98h-18zM721,861h18v158h-18zM161,881h18v98h-18zM401,881h38v218h-38zM461,901h18v58h-18zM481,921h18v18h-18zM561,941h18v78h-18zM701,941h18v158h-18zM801,941h18v18h-18zM521,981h18v118h-18zM781,981h38v118h-38zM161,1001h18v98h-18zM361,1021h18v38h-18zM461,1021h18v78h-18zM661,1021h18v78h-18zM501,1041h18v58h-18zM561,1041h18v58h-18zM901,1041h18v58h-18zM181,1061h18v38h-18zM281,1061h18v38h-18zM361,1081h18v18h-18z"></path><path fill="#f1c3ff" d="M341,121h58v38h-58zM481,121h18v58h-18zM401,141h18v18h-18zM501,161h18v58h-18zM521,181h38v18h-38zM241,201h18v38h-18zM461,201h38v18h-38zM301,241h18v118h-18zM461,261h18v118h-18zM501,261h18v18h-18zM581,261h18v38h-18zM701,261h58v58h-58zM561,281h18v38h-18zM881,301h38v18h-38zM881,321h18v158h-18zM161,341h18v118h-18zM541,341h18v18h-18zM281,381h38v18h-38zM341,381h98v18h-98zM561,381h38v18h-38zM801,381h18v98h-18zM401,401h18v18h-18zM681,401h18v38h-18zM761,401h18v38h-18zM921,421h18v178h-18zM181,441h18v18h-18zM441,441h18v38h-18zM341,461h18v58h-18zM421,461h18v18h-18zM501,461h18v18h-18zM641,461h78v18h-78zM301,481h18v78h-18zM381,481h18v18h-18zM481,481h18v38h-18zM621,481h18v158h-18zM161,501h38v98h-38zM421,501h18v18h-18zM561,501h18v18h-18zM641,501h38v18h-38zM701,501h18v158h-18zM781,521h18v18h-18zM741,541h18v18h-18zM801,541h18v158h-18zM221,581h38v118h-38zM541,581h18v18h-18zM661,581h18v18h-18zM421,601h18v118h-18zM461,601h18v78h-18zM641,621h58v18h-58zM761,641h38v18h-38zM541,661h18v18h-18zM661,681h58v18h-58zM321,701h98v18h-98zM461,701h18v158h-18zM541,701h38v158h-38zM741,701h38v78h-38zM141,761h18v18h-18zM581,761h18v98h-18zM601,781h58v18h-58zM341,801h18v18h-18zM521,801h18v18h-18zM741,801h18v18h-18zM501,821h18v38h-18zM201,841h18v258h-18zM521,841h18v18h-18zM661,841h18v18h-18zM361,861h38v138h-38zM661,881h58v38h-58zM501,901h38v78h-38zM661,921h38v78h-38zM581,961h18v138h-18zM461,981h18v18h-18zM261,1041h18v58h-18zM721,1041h18v58h-18z"></path><path fill="#000000" d="M1,1h1098v78h-1098zM1,81h418v18h-418zM441,81h18v38h-18zM501,81h18v18h-18zM661,81h438v18h-438zM1,101h378v18h-378zM601,101h18v18h-18zM721,101h378v18h-378zM1,121h338v18h-338zM401,121h18v18h-18zM461,121h18v18h-18zM501,121h18v38h-18zM581,121h18v18h-18zM761,121h338v18h-338zM1,141h318v18h-318zM561,141h18v18h-18zM601,141h18v18h-18zM741,141h18v18h-18zM781,141h318v18h-318zM1,161h278v18h-278zM361,161h18v18h-18zM401,161h18v18h-18zM521,161h38v18h-38zM821,161h278v18h-278zM1,181h258v18h-258zM321,181h18v38h-18zM461,181h38v18h-38zM581,181h18v18h-18zM721,181h18v38h-18zM761,181h18v38h-18zM841,181h258v18h-258zM1,201h238v38h-238zM281,201h38v18h-38zM341,201h118v18h-118zM521,201h38v38h-38zM621,201h98v18h-98zM741,201h18v18h-18zM781,201h58v18h-58zM861,201h238v38h-238zM281,221h18v158h-18zM441,221h78v18h-78zM601,221h18v18h-18zM641,221h18v178h-18zM801,221h18v158h-18zM1,241h218v18h-218zM241,241h18v18h-18zM321,241h98v18h-98zM441,241h38v18h-38zM501,241h38v18h-38zM561,241h38v18h-38zM681,241h98v18h-98zM881,241h218v18h-218zM1,261h198v38h-198zM321,261h18v78h-18zM401,261h18v78h-18zM441,261h18v138h-18zM521,261h58v18h-58zM601,261h38v38h-38zM681,261h18v78h-18zM761,261h18v78h-18zM901,261h198v38h-198zM221,281h18v18h-18zM501,281h58v18h-58zM881,281h18v18h-18zM1,301h178v38h-178zM481,301h18v58h-18zM541,301h18v38h-18zM581,301h38v18h-38zM821,301h18v18h-18zM921,301h178v38h-178zM201,321h18v38h-18zM341,321h58v18h-58zM521,321h18v58h-18zM561,321h18v58h-18zM621,321h18v18h-18zM701,321h58v18h-58zM901,321h18v38h-18zM1,341h158v298h-158zM181,341h18v58h-18zM221,341h18v18h-18zM601,341h18v78h-18zM841,341h18v18h-18zM941,341h158v298h-158zM301,361h138v18h-138zM541,361h18v38h-18zM581,361h18v18h-18zM661,361h138v18h-138zM321,381h18v38h-18zM461,381h38v18h-38zM621,381h18v38h-18zM761,381h38v18h-38zM221,401h18v18h-18zM301,401h18v18h-18zM361,401h38v18h-38zM421,401h18v18h-18zM481,401h58v18h-58zM561,401h38v18h-38zM661,401h18v18h-18zM701,401h58v18h-58zM781,401h18v18h-18zM921,401h18v18h-18zM361,421h18v18h-18zM401,421h18v18h-18zM441,421h38v18h-38zM521,421h58v18h-58zM641,421h18v38h-18zM701,421h18v38h-18zM741,421h18v38h-18zM201,441h18v38h-18zM281,441h38v18h-38zM341,441h18v18h-18zM381,441h18v38h-18zM421,441h18v18h-18zM461,441h18v98h-18zM501,441h18v18h-18zM541,441h38v18h-38zM661,441h38v18h-38zM721,441h18v38h-18zM761,441h18v18h-18zM161,461h38v18h-38zM301,461h38v18h-38zM361,461h18v38h-18zM481,461h18v18h-18zM621,461h18v18h-18zM901,461h18v18h-18zM241,481h18v98h-18zM321,481h18v98h-18zM421,481h38v18h-38zM501,481h38v38h-38zM601,481h18v18h-18zM641,481h38v18h-38zM701,481h18v18h-18zM741,481h18v58h-18zM781,481h38v18h-38zM881,481h18v18h-18zM201,501h18v18h-18zM281,501h18v38h-18zM381,501h38v18h-38zM441,501h18v38h-18zM541,501h18v38h-18zM581,501h18v38h-18zM341,521h38v18h-38zM401,521h38v18h-38zM481,521h18v38h-18zM561,521h18v18h-18zM641,521h38v18h-38zM721,521h18v38h-18zM761,521h18v58h-18zM801,521h18v18h-18zM261,541h18v18h-18zM401,541h18v38h-18zM521,541h18v18h-18zM601,541h18v18h-18zM781,541h18v38h-18zM221,561h18v18h-18zM281,561h38v18h-38zM341,561h58v18h-58zM421,561h38v18h-38zM541,561h18v18h-18zM581,561h18v58h-18zM641,561h58v18h-58zM741,561h18v18h-18zM261,581h38v38h-38zM441,581h38v18h-38zM501,581h38v18h-38zM561,581h18v38h-18zM601,581h18v38h-18zM641,581h18v38h-18zM681,581h18v38h-18zM721,581h18v18h-18zM821,581h18v18h-18zM161,601h18v78h-18zM321,601h98v18h-98zM441,601h18v138h-18zM481,601h18v18h-18zM541,601h18v18h-18zM661,601h18v18h-18zM741,601h58v18h-58zM901,601h38v18h-38zM281,621h18v118h-18zM321,621h18v78h-18zM401,621h18v78h-18zM721,621h18v18h-18zM761,621h38v18h-38zM821,621h18v38h-18zM921,621h18v58h-18zM1,641h138v458h-138zM181,641h18v58h-18zM481,641h18v18h-18zM541,641h98v18h-98zM681,641h18v38h-18zM901,641h18v58h-18zM961,641h138v458h-138zM201,661h18v78h-18zM501,661h38v18h-38zM561,661h18v38h-18zM621,661h18v18h-18zM661,661h18v18h-18zM701,661h18v18h-18zM761,661h18v38h-18zM881,661h18v78h-18zM141,681h18v18h-18zM341,681h58v18h-58zM461,681h18v18h-18zM541,681h18v18h-18zM641,681h18v38h-18zM741,681h18v18h-18zM841,681h18v18h-18zM221,701h18v58h-18zM261,701h18v18h-18zM481,701h18v18h-18zM581,701h58v18h-58zM661,701h18v18h-18zM801,701h18v18h-18zM861,701h18v58h-18zM301,721h138v18h-138zM521,721h18v38h-18zM901,721h18v18h-18zM141,741h18v18h-18zM241,741h18v358h-18zM621,741h18v38h-18zM681,741h18v38h-18zM821,741h38v58h-38zM161,761h18v38h-18zM261,761h18v38h-18zM301,761h18v58h-18zM361,761h38v18h-38zM601,761h18v18h-18zM801,761h18v58h-18zM141,781h18v18h-18zM221,781h18v18h-18zM281,781h18v38h-18zM341,781h18v18h-18zM381,781h18v18h-18zM521,781h18v18h-18zM661,781h18v58h-18zM701,781h18v18h-18zM741,781h18v18h-18zM781,781h18v58h-18zM901,781h18v18h-18zM941,781h18v18h-18zM321,801h18v38h-18zM401,801h18v18h-18zM641,801h18v18h-18zM721,801h18v58h-18zM761,801h18v38h-18zM841,801h18v298h-18zM161,821h18v58h-18zM201,821h18v18h-18zM341,821h38v38h-38zM481,821h18v18h-18zM521,821h18v18h-18zM741,821h18v278h-18zM181,841h18v18h-18zM301,841h18v18h-18zM381,841h58v18h-58zM681,841h38v38h-38zM341,861h18v238h-18zM401,861h278v18h-278zM221,881h18v18h-18zM441,881h218v18h-218zM881,881h18v38h-18zM441,901h18v198h-18zM481,901h18v18h-18zM541,901h18v198h-18zM641,901h18v198h-18zM701,921h18v18h-18zM801,921h18v18h-18zM861,921h18v18h-18zM481,941h18v18h-18zM581,941h18v18h-18zM181,961h18v18h-18zM461,961h18v18h-18zM801,961h18v18h-18zM881,961h58v18h-58zM161,981h18v18h-18zM501,981h18v18h-18zM761,981h18v38h-18zM361,1001h18v18h-18zM461,1001h18v18h-18zM661,1001h18v18h-18zM261,1021h18v18h-18zM501,1021h18v18h-18zM561,1021h18v18h-18zM721,1021h18v18h-18zM901,1021h18v18h-18zM181,1041h18v18h-18zM281,1041h18v18h-18zM301,1061h18v18h-18zM361,1061h18v18h-18zM861,1061h18v18h-18zM761,1081h18v18h-18z"></path></svg>