<svg xmlns="http://www.w3.org/2000/svg" viewBox="-2 -2 29 29"><g fill="#000000"><circle r="0.37" cx="8.5" cy="0.5"/><circle r="0.30" cx="10.5" cy="0.5"/><circle r="0.24" cx="14.5" cy="0.5"/><circle r="0.19" cx="16.5" cy="0.5"/><circle r="0.28" cx="11.5" cy="1.5"/><circle r="0.30" cx="12.5" cy="1.5"/><circle r="0.24" cx="13.5" cy="1.5"/><circle r="0.25" cx="14.5" cy="1.5"/><circle r="0.32" cx="16.5" cy="1.5"/><circle r="0.36" cx="8.5" cy="2.5"/><circle r="0.30" cx="9.5" cy="2.5"/><circle r="0.39" cx="12.5" cy="2.5"/><circle r="0.42" cx="14.5" cy="2.5"/><circle r="0.34" cx="15.5" cy="2.5"/><circle r="0.19" cx="16.5" cy="2.5"/><circle r="0.40" cx="9.5" cy="3.5"/><circle r="0.32" cx="10.5" cy="3.5"/><circle r="0.44" cx="11.5" cy="3.5"/><circle r="0.36" cx="13.5" cy="3.5"/><circle r="0.23" cx="14.5" cy="3.5"/><circle r="0.28" cx="16.5" cy="3.5"/><circle r="0.33" cx="9.5" cy="4.5"/><circle r="0.24" cx="10.5" cy="4.5"/><circle r="0.22" cx="14.5" cy="4.5"/><circle r="0.27" cx="11.5" cy="5.5"/><circle r="0.33" cx="13.5" cy="5.5"/><circle r="0.29" cx="15.5" cy="5.5"/><circle r="0.18" cx="8.5" cy="6.5"/><circle r="0.38" cx="10.5" cy="6.5"/><circle r="0.19" cx="12.5" cy="6.5"/><circle r="0.27" cx="14.5" cy="6.5"/><circle r="0.20" cx="16.5" cy="6.5"/><circle r="0.42" cx="8.5" cy="7.5"/><circle r="0.33" cx="9.5" cy="7.5"/><circle r="0.38" cx="11.5" cy="7.5"/><circle r="0.22" cx="12.5" cy="7.5"/><circle r="0.27" cx="14.5" cy="7.5"/><circle r="0.21" cx="15.5" cy="7.5"/><circle r="0.20" cx="0.5" cy="8.5"/><circle r="0.42" cx="2.5" cy="8.5"/><circle r="0.30" cx="5.5" cy="8.5"/><circle r="0.40" cx="6.5" cy="8.5"/><circle r="0.40" cx="9.5" cy="8.5"/><circle r="0.43" cx="10.5" cy="8.5"/><circle r="0.33" cx="13.5" cy="8.5"/><circle r="0.43" cx="14.5" cy="8.5"/><circle r="0.21" cx="16.5" cy="8.5"/><circle r="0.21" cx="17.5" cy="8.5"/><circle r="0.17" cx="18.5" cy="8.5"/><circle r="0.36" cx="22.5" cy="8.5"/><circle r="0.39" cx="24.5" cy="8.5"/><circle r="0.25" cx="0.5" cy="9.5"/><circle r="0.19" cx="1.5" cy="9.5"/><circle r="0.39" cx="2.5" cy="9.5"/><circle r="0.22" cx="3.5" cy="9.5"/><circle r="0.35" cx="7.5" cy="9.5"/><circle r="0.37" cx="9.5" cy="9.5"/><circle r="0.22" cx="11.5" cy="9.5"/><circle r="0.22" cx="14.5" cy="9.5"/><circle r="0.22" cx="16.5" cy="9.5"/><circle r="0.32" cx="17.5" cy="9.5"/><circle r="0.34" cx="19.5" cy="9.5"/><circle r="0.19" cx="1.5" cy="10.5"/><circle r="0.40" cx="2.5" cy="10.5"/><circle r="0.25" cx="3.5" cy="10.5"/><circle r="0.35" cx="6.5" cy="10.5"/><circle r="0.32" cx="8.5" cy="10.5"/><circle r="0.35" cx="9.5" cy="10.5"/><circle r="0.30" cx="12.5" cy="10.5"/><circle r="0.45" cx="15.5" cy="10.5"/><circle r="0.36" cx="20.5" cy="10.5"/><circle r="0.42" cx="21.5" cy="10.5"/><circle r="0.27" cx="24.5" cy="10.5"/><circle r="0.38" cx="2.5" cy="11.5"/><circle r="0.39" cx="3.5" cy="11.5"/><circle r="0.21" cx="4.5" cy="11.5"/><circle r="0.29" cx="5.5" cy="11.5"/><circle r="0.41" cx="7.5" cy="11.5"/><circle r="0.39" cx="11.5" cy="11.5"/><circle r="0.19" cx="15.5" cy="11.5"/><circle r="0.32" cx="18.5" cy="11.5"/><circle r="0.40" cx="20.5" cy="11.5"/><circle r="0.22" cx="23.5" cy="11.5"/><circle r="0.31" cx="1.5" cy="12.5"/><circle r="0.43" cx="3.5" cy="12.5"/><circle r="0.35" cx="4.5" cy="12.5"/><circle r="0.36" cx="6.5" cy="12.5"/><circle r="0.22" cx="7.5" cy="12.5"/><circle r="0.18" cx="8.5" cy="12.5"/><circle r="0.33" cx="9.5" cy="12.5"/><circle r="0.30" cx="12.5" cy="12.5"/><circle r="0.20" cx="13.5" cy="12.5"/><circle r="0.25" cx="14.5" cy="12.5"/><circle r="0.30" cx="15.5" cy="12.5"/><circle r="0.18" cx="20.5" cy="12.5"/><circle r="0.29" cx="21.5" cy="12.5"/><circle r="0.19" cx="22.5" cy="12.5"/><circle r="0.39" cx="23.5" cy="12.5"/><circle r="0.32" cx="1.5" cy="13.5"/><circle r="0.23" cx="4.5" cy="13.5"/><circle r="0.39" cx="8.5" cy="13.5"/><circle r="0.25" cx="9.5" cy="13.5"/><circle r="0.24" cx="11.5" cy="13.5"/><circle r="0.39" cx="12.5" cy="13.5"/><circle r="0.25" cx="14.5" cy="13.5"/><circle r="0.38" cx="16.5" cy="13.5"/><circle r="0.31" cx="17.5" cy="13.5"/><circle r="0.17" cx="19.5" cy="13.5"/><circle r="0.28" cx="20.5" cy="13.5"/><circle r="0.44" cx="22.5" cy="13.5"/><circle r="0.39" cx="24.5" cy="13.5"/><circle r="0.29" cx="0.5" cy="14.5"/><circle r="0.44" cx="1.5" cy="14.5"/><circle r="0.44" cx="2.5" cy="14.5"/><circle r="0.24" cx="3.5" cy="14.5"/><circle r="0.38" cx="4.5" cy="14.5"/><circle r="0.23" cx="6.5" cy="14.5"/><circle r="0.41" cx="7.5" cy="14.5"/><circle r="0.43" cx="8.5" cy="14.5"/><circle r="0.18" cx="9.5" cy="14.5"/><circle r="0.22" cx="14.5" cy="14.5"/><circle r="0.44" cx="15.5" cy="14.5"/><circle r="0.43" cx="16.5" cy="14.5"/><circle r="0.19" cx="17.5" cy="14.5"/><circle r="0.17" cx="22.5" cy="14.5"/><circle r="0.20" cx="23.5" cy="14.5"/><circle r="0.34" cx="24.5" cy="14.5"/><circle r="0.22" cx="0.5" cy="15.5"/><circle r="0.19" cx="2.5" cy="15.5"/><circle r="0.21" cx="3.5" cy="15.5"/><circle r="0.44" cx="7.5" cy="15.5"/><circle r="0.38" cx="9.5" cy="15.5"/><circle r="0.43" cx="10.5" cy="15.5"/><circle r="0.24" cx="11.5" cy="15.5"/><circle r="0.44" cx="12.5" cy="15.5"/><circle r="0.31" cx="13.5" cy="15.5"/><circle r="0.21" cx="14.5" cy="15.5"/><circle r="0.22" cx="15.5" cy="15.5"/><circle r="0.27" cx="20.5" cy="15.5"/><circle r="0.26" cx="0.5" cy="16.5"/><circle r="0.17" cx="1.5" cy="16.5"/><circle r="0.27" cx="5.5" cy="16.5"/><circle r="0.31" cx="6.5" cy="16.5"/><circle r="0.36" cx="7.5" cy="16.5"/><circle r="0.23" cx="8.5" cy="16.5"/><circle r="0.35" cx="9.5" cy="16.5"/><circle r="0.26" cx="12.5" cy="16.5"/><circle r="0.36" cx="13.5" cy="16.5"/><circle r="0.19" cx="14.5" cy="16.5"/><circle r="0.28" cx="15.5" cy="16.5"/><circle r="0.32" cx="16.5" cy="16.5"/><circle r="0.44" cx="17.5" cy="16.5"/><circle r="0.30" cx="18.5" cy="16.5"/><circle r="0.27" cx="19.5" cy="16.5"/><circle r="0.21" cx="20.5" cy="16.5"/><circle r="0.31" cx="21.5" cy="16.5"/><circle r="0.24" cx="22.5" cy="16.5"/><circle r="0.34" cx="23.5" cy="16.5"/><circle r="0.44" cx="24.5" cy="16.5"/><circle r="0.19" cx="9.5" cy="17.5"/><circle r="0.33" cx="10.5" cy="17.5"/><circle r="0.36" cx="14.5" cy="17.5"/><circle r="0.27" cx="16.5" cy="17.5"/><circle r="0.40" cx="20.5" cy="17.5"/><circle r="0.31" cx="21.5" cy="17.5"/><circle r="0.38" cx="23.5" cy="17.5"/><circle r="0.45" cx="24.5" cy="17.5"/><circle r="0.38" cx="9.5" cy="18.5"/><circle r="0.44" cx="10.5" cy="18.5"/><circle r="0.22" cx="11.5" cy="18.5"/><circle r="0.40" cx="12.5" cy="18.5"/><circle r="0.40" cx="13.5" cy="18.5"/><circle r="0.28" cx="14.5" cy="18.5"/><circle r="0.23" cx="15.5" cy="18.5"/><circle r="0.23" cx="16.5" cy="18.5"/><circle r="0.35" cx="18.5" cy="18.5"/><circle r="0.30" cx="20.5" cy="18.5"/><circle r="0.21" cx="24.5" cy="18.5"/><circle r="0.31" cx="8.5" cy="19.5"/><circle r="0.39" cx="9.5" cy="19.5"/><circle r="0.25" cx="13.5" cy="19.5"/><circle r="0.44" cx="15.5" cy="19.5"/><circle r="0.30" cx="16.5" cy="19.5"/><circle r="0.37" cx="20.5" cy="19.5"/><circle r="0.18" cx="22.5" cy="19.5"/><circle r="0.19" cx="23.5" cy="19.5"/><circle r="0.24" cx="10.5" cy="20.5"/><circle r="0.26" cx="15.5" cy="20.5"/><circle r="0.31" cx="16.5" cy="20.5"/><circle r="0.36" cx="17.5" cy="20.5"/><circle r="0.44" cx="18.5" cy="20.5"/><circle r="0.27" cx="19.5" cy="20.5"/><circle r="0.25" cx="20.5" cy="20.5"/><circle r="0.36" cx="21.5" cy="20.5"/><circle r="0.17" cx="22.5" cy="20.5"/><circle r="0.20" cx="23.5" cy="20.5"/><circle r="0.36" cx="9.5" cy="21.5"/><circle r="0.17" cx="10.5" cy="21.5"/><circle r="0.38" cx="11.5" cy="21.5"/><circle r="0.41" cx="14.5" cy="21.5"/><circle r="0.20" cx="15.5" cy="21.5"/><circle r="0.38" cx="22.5" cy="21.5"/><circle r="0.17" cx="24.5" cy="21.5"/><circle r="0.43" cx="8.5" cy="22.5"/><circle r="0.37" cx="10.5" cy="22.5"/><circle r="0.33" cx="14.5" cy="22.5"/><circle r="0.38" cx="21.5" cy="22.5"/><circle r="0.44" cx="9.5" cy="23.5"/><circle r="0.40" cx="13.5" cy="23.5"/><circle r="0.25" cx="16.5" cy="23.5"/><circle r="0.37" cx="19.5" cy="23.5"/><circle r="0.40" cx="20.5" cy="23.5"/><circle r="0.24" cx="21.5" cy="23.5"/><circle r="0.33" cx="22.5" cy="23.5"/><circle r="0.28" cx="8.5" cy="24.5"/><circle r="0.18" cx="9.5" cy="24.5"/><circle r="0.19" cx="10.5" cy="24.5"/><circle r="0.35" cx="12.5" cy="24.5"/><circle r="0.41" cx="13.5" cy="24.5"/><circle r="0.20" cx="14.5" cy="24.5"/><circle r="0.40" cx="17.5" cy="24.5"/><circle r="0.31" cx="18.5" cy="24.5"/><circle r="0.42" cx="20.5" cy="24.5"/><circle r="0.39" cx="22.5" cy="24.5"/><circle r="0.30" cx="24.5" cy="24.5"/></g><g stroke="#000000" stroke-linecap="round"><line x1="10.5" y1="0.5" x2="16.5" y2="6.5" stroke-width="0.19"/><line x1="13.5" y1="1.5" x2="14.5" y2="2.5" stroke-width="0.14"/><line x1="14.5" y1="1.5" x2="16.5" y2="3.5" stroke-width="0.26"/><line x1="8.5" y1="2.5" x2="12.5" y2="6.5" stroke-width="0.23"/><line x1="9.5" y1="2.5" x2="10.5" y2="3.5" stroke-width="0.22"/><line x1="13.5" y1="3.5" x2="14.5" y2="2.5" stroke-width="0.26"/><line x1="14.5" y1="3.5" x2="16.5" y2="1.5" stroke-width="0.27"/><line x1="9.5" y1="4.5" x2="10.5" y2="3.5" stroke-width="0.12"/><line x1="10.5" y1="4.5" x2="14.5" y2="0.5" stroke-width="0.13"/><line x1="13.5" y1="5.5" x2="17.5" y2="9.5" stroke-width="0.22"/><line x1="8.5" y1="6.5" x2="12.5" y2="10.5" stroke-width="0.23"/><line x1="10.5" y1="6.5" x2="11.5" y2="7.5" stroke-width="0.25"/><line x1="14.5" y1="6.5" x2="15.5" y2="5.5" stroke-width="0.26"/><line x1="8.5" y1="7.5" x2="9.5" y2="8.5" stroke-width="0.29"/><line x1="9.5" y1="7.5" x2="11.5" y2="5.5" stroke-width="0.20"/><line x1="12.5" y1="7.5" x2="15.5" y2="10.5" stroke-width="0.24"/><line x1="0.5" y1="8.5" x2="4.5" y2="12.5" stroke-width="0.12"/><line x1="2.5" y1="8.5" x2="3.5" y2="9.5" stroke-width="0.14"/><line x1="6.5" y1="8.5" x2="8.5" y2="10.5" stroke-width="0.16"/><line x1="13.5" y1="8.5" x2="14.5" y2="7.5" stroke-width="0.17"/><line x1="14.5" y1="8.5" x2="16.5" y2="6.5" stroke-width="0.17"/><line x1="18.5" y1="8.5" x2="20.5" y2="10.5" stroke-width="0.29"/><line x1="0.5" y1="9.5" x2="4.5" y2="13.5" stroke-width="0.20"/><line x1="1.5" y1="9.5" x2="2.5" y2="8.5" stroke-width="0.29"/><line x1="2.5" y1="9.5" x2="4.5" y2="11.5" stroke-width="0.19"/><line x1="17.5" y1="9.5" x2="18.5" y2="8.5" stroke-width="0.20"/><line x1="1.5" y1="10.5" x2="2.5" y2="9.5" stroke-width="0.21"/><line x1="2.5" y1="10.5" x2="3.5" y2="9.5" stroke-width="0.17"/><line x1="6.5" y1="10.5" x2="9.5" y2="13.5" stroke-width="0.28"/><line x1="15.5" y1="10.5" x2="17.5" y2="8.5" stroke-width="0.15"/><line x1="5.5" y1="11.5" x2="6.5" y2="12.5" stroke-width="0.10"/><line x1="11.5" y1="11.5" x2="12.5" y2="10.5" stroke-width="0.10"/><line x1="11.5" y1="11.5" x2="12.5" y2="12.5" stroke-width="0.13"/><line x1="20.5" y1="11.5" x2="21.5" y2="10.5" stroke-width="0.18"/><line x1="20.5" y1="11.5" x2="23.5" y2="14.5" stroke-width="0.23"/><line x1="1.5" y1="12.5" x2="3.5" y2="10.5" stroke-width="0.12"/><line x1="3.5" y1="12.5" x2="4.5" y2="11.5" stroke-width="0.18"/><line x1="4.5" y1="12.5" x2="7.5" y2="9.5" stroke-width="0.30"/><line x1="6.5" y1="12.5" x2="14.5" y2="4.5" stroke-width="0.19"/><line x1="7.5" y1="12.5" x2="10.5" y2="15.5" stroke-width="0.14"/><line x1="13.5" y1="12.5" x2="15.5" y2="14.5" stroke-width="0.18"/><line x1="14.5" y1="12.5" x2="15.5" y2="11.5" stroke-width="0.25"/><line x1="15.5" y1="12.5" x2="17.5" y2="14.5" stroke-width="0.15"/><line x1="22.5" y1="12.5" x2="24.5" y2="10.5" stroke-width="0.09"/><line x1="23.5" y1="12.5" x2="24.5" y2="13.5" stroke-width="0.11"/><line x1="1.5" y1="13.5" x2="3.5" y2="15.5" stroke-width="0.27"/><line x1="11.5" y1="13.5" x2="12.5" y2="12.5" stroke-width="0.25"/><line x1="12.5" y1="13.5" x2="13.5" y2="12.5" stroke-width="0.25"/><line x1="14.5" y1="13.5" x2="15.5" y2="12.5" stroke-width="0.23"/><line x1="19.5" y1="13.5" x2="20.5" y2="12.5" stroke-width="0.17"/><line x1="20.5" y1="13.5" x2="21.5" y2="12.5" stroke-width="0.12"/><line x1="22.5" y1="13.5" x2="23.5" y2="12.5" stroke-width="0.10"/><line x1="0.5" y1="14.5" x2="1.5" y2="13.5" stroke-width="0.14"/><line x1="1.5" y1="14.5" x2="2.5" y2="15.5" stroke-width="0.29"/><line x1="6.5" y1="14.5" x2="10.5" y2="18.5" stroke-width="0.30"/><line x1="7.5" y1="14.5" x2="9.5" y2="12.5" stroke-width="0.28"/><line x1="8.5" y1="14.5" x2="9.5" y2="15.5" stroke-width="0.14"/><line x1="14.5" y1="14.5" x2="16.5" y2="16.5" stroke-width="0.22"/><line x1="23.5" y1="14.5" x2="24.5" y2="13.5" stroke-width="0.19"/><line x1="0.5" y1="15.5" x2="1.5" y2="14.5" stroke-width="0.24"/><line x1="0.5" y1="15.5" x2="1.5" y2="16.5" stroke-width="0.22"/><line x1="3.5" y1="15.5" x2="4.5" y2="14.5" stroke-width="0.09"/><line x1="11.5" y1="15.5" x2="12.5" y2="16.5" stroke-width="0.26"/><line x1="12.5" y1="15.5" x2="17.5" y2="20.5" stroke-width="0.28"/><line x1="13.5" y1="15.5" x2="14.5" y2="16.5" stroke-width="0.28"/><line x1="14.5" y1="15.5" x2="16.5" y2="17.5" stroke-width="0.29"/><line x1="20.5" y1="15.5" x2="21.5" y2="16.5" stroke-width="0.11"/><line x1="1.5" y1="16.5" x2="4.5" y2="13.5" stroke-width="0.27"/><line x1="6.5" y1="16.5" x2="9.5" y2="13.5" stroke-width="0.22"/><line x1="8.5" y1="16.5" x2="9.5" y2="15.5" stroke-width="0.27"/><line x1="9.5" y1="16.5" x2="10.5" y2="15.5" stroke-width="0.25"/><line x1="9.5" y1="16.5" x2="11.5" y2="18.5" stroke-width="0.29"/><line x1="12.5" y1="16.5" x2="14.5" y2="14.5" stroke-width="0.29"/><line x1="13.5" y1="16.5" x2="16.5" y2="13.5" stroke-width="0.11"/><line x1="14.5" y1="16.5" x2="17.5" y2="13.5" stroke-width="0.17"/><line x1="19.5" y1="16.5" x2="20.5" y2="15.5" stroke-width="0.14"/><line x1="19.5" y1="16.5" x2="20.5" y2="17.5" stroke-width="0.13"/><line x1="20.5" y1="16.5" x2="21.5" y2="17.5" stroke-width="0.27"/><line x1="22.5" y1="16.5" x2="24.5" y2="18.5" stroke-width="0.27"/><line x1="23.5" y1="16.5" x2="24.5" y2="17.5" stroke-width="0.15"/><line x1="20.5" y1="17.5" x2="21.5" y2="16.5" stroke-width="0.12"/><line x1="23.5" y1="17.5" x2="24.5" y2="16.5" stroke-width="0.24"/><line x1="12.5" y1="18.5" x2="13.5" y2="19.5" stroke-width="0.23"/><line x1="13.5" y1="18.5" x2="15.5" y2="16.5" stroke-width="0.20"/><line x1="14.5" y1="18.5" x2="16.5" y2="20.5" stroke-width="0.25"/><line x1="15.5" y1="18.5" x2="17.5" y2="16.5" stroke-width="0.24"/><line x1="20.5" y1="18.5" x2="22.5" y2="16.5" stroke-width="0.21"/><line x1="8.5" y1="19.5" x2="10.5" y2="17.5" stroke-width="0.15"/><line x1="9.5" y1="19.5" x2="10.5" y2="18.5" stroke-width="0.21"/><line x1="9.5" y1="19.5" x2="11.5" y2="21.5" stroke-width="0.24"/><line x1="13.5" y1="19.5" x2="14.5" y2="18.5" stroke-width="0.17"/><line x1="15.5" y1="19.5" x2="16.5" y2="18.5" stroke-width="0.23"/><line x1="20.5" y1="19.5" x2="22.5" y2="21.5" stroke-width="0.22"/><line x1="22.5" y1="19.5" x2="24.5" y2="21.5" stroke-width="0.23"/><line x1="19.5" y1="20.5" x2="20.5" y2="19.5" stroke-width="0.16"/><line x1="21.5" y1="20.5" x2="22.5" y2="19.5" stroke-width="0.10"/><line x1="22.5" y1="20.5" x2="24.5" y2="18.5" stroke-width="0.25"/><line x1="9.5" y1="21.5" x2="10.5" y2="22.5" stroke-width="0.25"/><line x1="14.5" y1="21.5" x2="16.5" y2="19.5" stroke-width="0.18"/><line x1="8.5" y1="22.5" x2="10.5" y2="20.5" stroke-width="0.16"/><line x1="8.5" y1="22.5" x2="10.5" y2="24.5" stroke-width="0.30"/><line x1="21.5" y1="22.5" x2="22.5" y2="23.5" stroke-width="0.30"/><line x1="13.5" y1="23.5" x2="14.5" y2="24.5" stroke-width="0.23"/><line x1="16.5" y1="23.5" x2="17.5" y2="24.5" stroke-width="0.20"/><line x1="19.5" y1="23.5" x2="20.5" y2="24.5" stroke-width="0.17"/><line x1="20.5" y1="23.5" x2="23.5" y2="20.5" stroke-width="0.17"/><line x1="21.5" y1="23.5" x2="22.5" y2="24.5" stroke-width="0.28"/><line x1="8.5" y1="24.5" x2="11.5" y2="21.5" stroke-width="0.21"/><line x1="12.5" y1="24.5" x2="16.5" y2="20.5" stroke-width="0.14"/><line x1="18.5" y1="24.5" x2="19.5" y2="23.5" stroke-width="0.16"/><line x1="20.5" y1="24.5" x2="21.5" y2="23.5" stroke-width="0.29"/></g><g fill="#000000"><rect x="2" y="2" width="3" height="3"/><rect x="20" y="2" width="3" height="3"/><rect x="2" y="20" width="3" height="3"/></g><g stroke="#000000"><rect fill="none" stroke-width="1" x="0.5" y="0.5" width="6" height="6"/><rect fill="none" stroke-width="1" x="18.5" y="0.5" width="6" height="6"/><rect fill="none" stroke-width="1" x="0.5" y="18.5" width="6" height="6"/></g></svg>