<svg xmlns="http://www.w3.org/2000/svg" viewBox="0 0 53 53"><path stroke="#000" d="M4 4.5h7m1 0h2m1 0h1m24 0h1m1 0h7m-45 1h1m5 0h1m1 0h5m22 0h1m2 0h1m5 0h1m-45 1h1m1 0h3m1 0h1m5 0h1m22 0h1m2 0h1m1 0h3m1 0h1m-45 1h1m1 0h3m1 0h1m2 0h1m2 0h1m22 0h2m1 0h1m1 0h3m1 0h1m-45 1h1m1 0h3m1 0h1m1 0h1m1 0h1m9 0h5m9 0h3m1 0h1m1 0h3m1 0h1m-45 1h1m5 0h1m1 0h3m9 0h1m3 0h1m13 0h1m5 0h1m-45 1h7m1 0h1m1 0h1m1 0h1m1 0h1m1 0h1m1 0h1m1 0h1m1 0h1m1 0h1m1 0h1m1 0h1m1 0h1m1 0h1m1 0h1m1 0h1m1 0h7m-37 1h1m1 0h1m9 0h1m3 0h1m-25 1h3m2 0h2m1 0h1m1 0h1m1 0h1m7 0h5m12 0h4m2 0h2m-43 1h1m2 0h1m1 0h1m4 0h1m24 0h2m1 0h1m-41 1h1m1 0h1m1 0h4m2 0h2m4 0h1m13 0h2m6 0h1m5 0h1m-38 1h2m1 0h1m1 0h1m2 0h1m1 0h1m2 0h6m4 0h2m11 0h1m-43 1h2m2 0h3m2 0h3m2 0h1m1 0h13m1 0h1m12 0h1m-43 1h2m1 0h1m2 0h5m2 0h1m2 0h2m7 0h5m9 0h1m-40 1h1m2 0h2m1 0h2m2 0h1m2 0h1m15 0h1m9 0h1m-42 1h1m1 0h1m2 0h1m1 0h1m1 0h1m4 0h2m15 0h2m4 0h1m2 0h1m-41 1h1m2 0h2m1 0h1m1 0h1m2 0h5m15 0h2m4 0h2m-39 1h1m1 0h2m1 0h1m2 0h4m1 0h2m2 0h1m1 0h2m4 0h2m1 0h1m3 0h1m4 0h1m6 0h1m-45 1h1m2 0h1m1 0h6m2 0h2m3 0h3m4 0h3m4 0h2m3 0h2m1 0h1m3 0h1m-45 1h1m4 0h1m3 0h1m1 0h1m1 0h1m3 0h4m3 0h4m4 0h2m10 0h1m-45 1h9m4 0h1m5 0h6m1 0h1m6 0h2m1 0h5m2 0h1m-43 1h1m2 0h1m3 0h1m3 0h1m7 0h1m3 0h1m8 0h4m3 0h3m-43 1h5m1 0h1m1 0h4m7 0h2m1 0h1m1 0h3m8 0h2m1 0h1m1 0h1m1 0h1m-43 1h2m1 0h2m3 0h3m8 0h2m3 0h3m7 0h3m3 0h3m-43 1h1m3 0h5m2 0h2m7 0h5m9 0h7m1 0h1m-41 1h1m1 0h1m3 0h3m1 0h1m21 0h2m8 0h1m-45 1h4m2 0h1m3 0h1m1 0h1m21 0h3m6 0h1m-44 1h1m1 0h1m1 0h1m2 0h2m3 0h2m20 0h1m1 0h1m6 0h1m-39 1h2m1 0h1m1 0h2m1 0h2m19 0h1m1 0h2m1 0h1m3 0h2m-45 1h1m1 0h1m1 0h1m2 0h5m2 0h1m3 0h7m8 0h2m1 0h2m2 0h2m-42 1h1m2 0h1m2 0h3m1 0h3m1 0h2m6 0h6m5 0h4m4 0h2m-43 1h3m1 0h2m5 0h3m1 0h1m16 0h4m1 0h1m-38 1h1m2 0h1m2 0h1m1 0h1m2 0h2m1 0h3m15 0h6m3 0h2m-42 1h5m2 0h2m1 0h3m2 0h3m11 0h5m1 0h2m5 0h2m-41 1h1m1 0h1m2 0h2m1 0h5m1 0h3m8 0h1m1 0h4m2 0h1m5 0h2m-44 1h4m2 0h2m1 0h1m2 0h3m1 0h4m6 0h4m1 0h1m3 0h2m-38 1h1m2 0h2m1 0h3m5 0h5m1 0h12m4 0h5m2 0h2m-37 1h4m3 0h6m3 0h7m5 0h1m3 0h1m-41 1h7m3 0h2m3 0h4m1 0h1m1 0h1m1 0h1m2 0h1m1 0h2m5 0h1m1 0h1m1 0h3m-43 1h1m5 0h1m1 0h1m6 0h1m1 0h1m1 0h2m3 0h3m2 0h2m5 0h1m3 0h3m-43 1h1m1 0h3m1 0h1m2 0h1m4 0h3m3 0h5m4 0h2m5 0h6m-42 1h1m1 0h3m1 0h1m7 0h1m1 0h1m12 0h2m5 0h2m1 0h2m2 0h2m-45 1h1m1 0h3m1 0h1m1 0h2m4 0h3m13 0h1m5 0h1m1 0h1m5 0h1m-45 1h1m5 0h1m1 0h2m4 0h2m14 0h1m5 0h1m2 0h1m4 0h1m-45 1h7m1 0h2m20 0h1m5 0h1m2 0h1m3 0h2"/></svg>