<?xml version="1.0" standalone="no"?>
<!DOCTYPE svg PUBLIC "-//W3C//DTD SVG 20010904//EN"
 "http://www.w3.org/TR/2001/REC-SVG-20010904/DTD/svg10.dtd">
<svg version="1.0" xmlns="http://www.w3.org/2000/svg"
 width="512.000000pt" height="512.000000pt" viewBox="0 0 512.000000 512.000000"
 preserveAspectRatio="xMidYMid meet">
<metadata>
Created by potrace 1.11, written by Peter Selinger 2001-2013
</metadata>
<g transform="translate(0.000000,512.000000) scale(0.100000,-0.100000)"
fill="#000000" stroke="none">
<path d="M2035 4948 c-92 -215 -235 -500 -375 -746 l-75 -132 -335 1 -335 0
231 116 c182 91 231 120 226 132 -3 9 -42 72 -85 141 -43 69 -95 151 -115 183
-21 32 -55 84 -78 115 -22 32 -73 103 -113 159 -40 57 -77 105 -82 109 -6 4
-486 -234 -508 -252 -2 -2 23 -43 55 -91 32 -49 64 -97 70 -108 6 -11 32 -56
59 -100 53 -89 133 -237 181 -335 l31 -65 -241 -5 -241 -5 0 -290 0 -290 430
-5 430 -5 0 -315 c0 -173 -2 -328 -5 -345 l-6 -30 -499 -2 c-275 0 -502 -2
-505 -2 -5 -1 -5 -558 -1 -583 0 -4 206 -7 458 -7 251 -1 458 -3 460 -5 13
-13 -80 -310 -144 -461 -151 -355 -414 -707 -696 -933 -40 -31 -74 -59 -77
-62 -3 -3 -29 -23 -58 -44 l-53 -39 28 -31 c15 -17 30 -33 33 -36 19 -18 208
-239 264 -310 38 -47 76 -94 85 -105 9 -11 30 -39 46 -62 17 -24 33 -43 38
-43 13 0 341 333 418 425 153 183 256 326 369 515 65 108 192 356 205 400 20
65 26 64 96 -23 61 -75 280 -359 322 -418 122 -169 178 -250 275 -394 63 -93
115 -171 117 -173 2 -3 491 319 578 380 l27 19 -142 187 c-78 103 -148 194
-154 202 -7 8 -81 103 -165 210 -147 187 -162 206 -184 233 -6 7 -70 85 -143
174 -73 90 -136 163 -140 163 -5 0 -86 -54 -182 -119 -96 -66 -176 -118 -179
-116 -2 2 3 26 12 52 15 46 35 120 42 153 32 146 57 255 59 257 2 2 251 3 555
3 l551 0 -2 297 -3 297 -520 0 c-286 -1 -522 3 -525 7 -3 4 -4 123 -3 266 1
142 2 295 3 340 l0 83 468 2 467 3 0 293 0 292 -227 0 c-126 0 -228 2 -228 5
0 2 61 105 136 227 75 123 149 243 164 268 15 25 50 82 78 127 l52 83 -28 14
c-34 17 -608 266 -614 266 -2 0 -26 -51 -53 -112z"/>
<path d="M3043 4772 l-33 -3 0 -2350 0 -2349 320 0 c176 0 320 3 320 8 1 4 1
931 2 2060 l0 2052 319 0 c175 0 319 -4 319 -8 0 -16 -177 -526 -245 -707 -59
-157 -182 -467 -229 -577 -9 -20 -12 -38 -7 -40 13 -5 150 -165 218 -255 250
-327 377 -638 375 -919 0 -206 -110 -316 -307 -308 -70 3 -189 15 -228 24 -20
4 -39 4 -42 0 -3 -5 4 -48 16 -97 12 -48 23 -99 25 -113 2 -14 7 -35 9 -48 16
-70 40 -221 51 -317 3 -33 9 -78 13 -100 l7 -40 139 2 c151 2 282 16 385 40
36 8 76 17 90 19 47 10 169 65 221 102 120 84 219 240 266 422 22 81 26 119
27 260 1 168 -7 279 -23 338 -5 18 -10 35 -10 37 1 40 -55 213 -108 335 -95
216 -242 430 -436 635 -42 44 -53 62 -46 74 26 46 337 821 480 1196 l53 140 1
243 1 242 -26 1 c-96 2 -1892 3 -1917 1z"/>
</g>
</svg>
