<svg xmlns="http://www.w3.org/2000/svg" viewBox="0 0 100 100">
  <path d="M22.7 12v66.5q0 4 1.2 5.5 1.2 1.4 4.2 1.4v2l-5.7-.2q-3.9-.2-8-.2l-8.1.2-6.3.2v-2q3 0 4.2-1.4 1.2-1.5 1.2-5.5V23.7q0-4.4-1.2-6.5-1.1-2-4.2-2v-2l6 .2q4.8 0 9-.3t7.7-1zm32 25.4v2q-3.4 1-7 3.3-3.6 2.4-7.2 6.1L37 52.2l.7-1.3 15.5 29.5 1.6 2.8q.9 1.4 2.2 2.2v2l-5-.2-6.6-.2-7.8.2-5.8.2v-2q2 0 2.5-.9.7-.8-.1-2.4l-8.5-17.9q-.7-1.3-1.5-1.7-.9-.4-2-.4v-1.8q1.3 0 2.5-.3 1.1-.2 2-1.2l7.5-7q3.4-3 3.4-5.7 0-2.8-2.1-4.6-2.2-1.9-5.6-2.1v-2l6 .2 5.5.1h4.6l5-.1q2.4 0 3.6-.2zM100 37 78.4 86h1.4q3.6 0 7.2-1.7 3.7-1.6 6.3-5.6 2.7-4 3.1-11.1h2v12.3l.3 8q-4.4-.3-9.2-.4H69.6l-10.2.4L81 39h-2q-3.5 0-7 1.7-3.5 1.6-6 5.6-2.4 4-3 11.2h-2V45l-.3-7.9 9.3.3 9.6.1 10.3-.1L100 37z" style="fill:#e11d48"/>
</svg>