<svg xmlns="http://www.w3.org/2000/svg" viewBox="0 0 100 100"><path d="M100 81.2H59.2v-2.8L83 43.9l-8.9.1q-3.9.2-6.2 1-.8.3-2 3-1.4 2.8-2.1 5.7h-3V40.2h38.6v2.5L75.5 77.5H86.4l3.6-.3q1.7-.2 2.7-1.2 1-1 1.6-2.2.6-1.3 1.4-3.7.9-2.4 1.4-4.3h2.9ZM55.4 81.2H36q-3.6-6.3-6.6-10.7l-5.6-8.2-2.5 2.1v9q0 1.6.4 2.5.5 1 1.7 1.4l1.8.6 2 .3v3H1.4v-3l2-.2q1.1-.1 1.9-.4 1.3-.5 1.8-1.4.5-1 .5-2.5V27.5q0-1.4-.6-2.8-.6-1.5-1.8-2.2-.8-.5-2.3-.9L0 21.2v-3l20.6-1 .6.6v42.7l6.9-6.3 6.2-6q1.3-1.4 1.5-2l.1-1q0-.7-1.3-1.2t-3.9-1v-2.8h21V43q-4.1 1.2-6.3 2.2-2.1 1-4.7 2.7-1.7 1.1-3.3 2.4l-3.7 3 7.5 10.9 7.2 10.6q1.3 2 3.2 2.6 2 .7 3.8.8z" style="fill:#e11d48"/></svg>