<svg xmlns="http://www.w3.org/2000/svg" viewBox="0 0 39.041 37.253"><path d="M19.52 1.25v19.21l4.325-5.952z" fill="#fdeeda"/><path d="m1.25 14.524 18.27 5.937-4.324-5.953zM8.229 36.003 19.52 20.461l-6.998 2.274z" fill="#d8bd99"/><path d="M30.813 36.003 19.52 20.461v7.358z" fill="#c79979"/><path d="m37.791 14.524-18.27 5.937 6.997 2.274z" fill="#d8bd99"/><path d="m1.25 14.524 18.27 5.937-6.997 2.274z" fill="#c79979"/><path d="M8.229 36.003 19.52 20.461v7.358z" fill="#ead6b8"/><path d="M30.813 36.003 19.52 20.461l6.997 2.274z" fill="#fdeeda"/><path d="m37.791 14.524-18.27 5.937 4.324-5.953z" fill="#ead6b8"/><path d="M19.52 1.25v19.21l-4.324-5.952z" fill="#c79979"/><path d="m19.52 1.25 4.325 13.258 13.946.016-11.273 8.21 4.295 13.269-11.292-8.184-11.292 8.184 4.294-13.268-11.273-8.21 13.946-.017z" fill="none" stroke="#2b030d" stroke-width="2.5" stroke-linecap="round" stroke-linejoin="round" paint-order="fill markers stroke"/><path d="m19.52 1.25 4.325 13.258 13.946.016-11.273 8.21 4.295 13.269-11.292-8.184-11.292 8.184 4.294-13.268-11.273-8.21 13.946-.017z" fill="none" stroke="#2b030d" stroke-width="2.5" stroke-linecap="round" stroke-linejoin="round" paint-order="fill markers stroke"/></svg>