<svg xmlns="http://www.w3.org/2000/svg" viewBox="-2 -2 29 29" fill="white"><g fill="#F6B506"><rect width="0.7" height="0.7" x="12.15" y="1.15"/><rect width="0.7" height="0.7" x="9.15" y="3.15"/><rect width="0.7" height="0.7" x="16.15" y="4.15"/><rect width="0.7" height="0.7" x="11.15" y="5.15"/><rect width="0.7" height="0.7" x="13.15" y="5.15"/><rect width="0.7" height="0.7" x="15.15" y="5.15"/><rect width="0.7" height="0.7" x="8.15" y="6.15"/><rect width="0.7" height="0.7" x="12.15" y="6.15"/><rect width="0.7" height="0.7" x="14.15" y="6.15"/><rect width="0.7" height="0.7" x="16.15" y="6.15"/><rect width="0.7" height="0.7" x="9.15" y="7.15"/><rect width="0.7" height="0.7" x="3.15" y="8.15"/><rect width="0.7" height="0.7" x="13.15" y="8.15"/><rect width="0.7" height="0.7" x="15.15" y="8.15"/><rect width="0.7" height="0.7" x="17.15" y="8.15"/><rect width="0.7" height="0.7" x="24.15" y="8.15"/><rect width="0.7" height="0.7" x="0.15" y="9.15"/><rect width="0.7" height="0.7" x="3.15" y="9.15"/><rect width="0.7" height="0.7" x="7.15" y="9.15"/><rect width="0.7" height="0.7" x="9.15" y="9.15"/><rect width="0.7" height="0.7" x="11.15" y="9.15"/><rect width="0.7" height="0.7" x="17.15" y="9.15"/><rect width="0.7" height="0.7" x="19.15" y="9.15"/><rect width="0.7" height="0.7" x="1.15" y="10.15"/><rect width="0.7" height="0.7" x="10.15" y="10.15"/><rect width="0.7" height="0.7" x="12.15" y="10.15"/><rect width="0.7" height="0.7" x="24.15" y="10.15"/><rect width="0.7" height="0.7" x="3.15" y="11.15"/><rect width="0.7" height="0.7" x="15.15" y="11.15"/><rect width="0.7" height="0.7" x="18.15" y="11.15"/><rect width="0.7" height="0.7" x="23.15" y="11.15"/><rect width="0.7" height="0.7" x="5.15" y="12.15"/><rect width="0.7" height="0.7" x="8.15" y="12.15"/><rect width="0.7" height="0.7" x="19.15" y="13.15"/><rect width="0.7" height="0.7" x="24.15" y="13.15"/><rect width="0.7" height="0.7" x="1.15" y="14.15"/><rect width="0.7" height="0.7" x="21.15" y="14.15"/><rect width="0.7" height="0.7" x="7.15" y="15.15"/><rect width="0.7" height="0.7" x="9.15" y="15.15"/><rect width="0.7" height="0.7" x="1.15" y="16.15"/><rect width="0.7" height="0.7" x="8.15" y="18.15"/><rect width="0.7" height="0.7" x="10.15" y="18.15"/><rect width="0.7" height="0.7" x="12.15" y="18.15"/><rect width="0.7" height="0.7" x="18.15" y="18.15"/><rect width="0.7" height="0.7" x="21.15" y="18.15"/><rect width="0.7" height="0.7" x="24.15" y="18.15"/><rect width="0.7" height="0.7" x="10.15" y="19.15"/><rect width="0.7" height="0.7" x="13.15" y="19.15"/><rect width="0.7" height="0.7" x="15.15" y="19.15"/><rect width="0.7" height="0.7" x="15.15" y="21.15"/><rect width="0.7" height="0.7" x="22.15" y="21.15"/><rect width="0.7" height="0.7" x="24.15" y="21.15"/><rect width="0.7" height="0.7" x="10.15" y="23.15"/><rect width="0.7" height="0.7" x="19.15" y="23.15"/><rect width="0.7" height="0.7" x="21.15" y="24.15"/><rect width="3.7" height="0.7" x="8.15" y="0.15"/><rect width="3.7" height="0.7" x="13.15" y="0.15"/><rect width="1.7" height="0.7" x="11.15" y="7.15"/><rect width="1.7" height="0.7" x="15.15" y="7.15"/><rect width="2.7" height="0.7" x="6.15" y="8.15"/><rect width="1.7" height="0.7" x="7.15" y="11.15"/><rect width="1.7" height="0.7" x="10.15" y="11.15"/><rect width="1.7" height="0.7" x="19.15" y="12.15"/><rect width="1.7" height="0.7" x="1.15" y="13.15"/><rect width="1.7" height="0.7" x="9.15" y="13.15"/><rect width="1.7" height="0.7" x="6.15" y="14.15"/><rect width="1.7" height="0.7" x="23.15" y="14.15"/><rect width="4.7" height="0.7" x="11.15" y="15.15"/><rect width="3.7" height="0.7" x="4.15" y="16.15"/><rect width="1.7" height="0.7" x="12.15" y="16.15"/><rect width="2.7" height="0.7" x="17.15" y="16.15"/><rect width="1.7" height="0.7" x="8.15" y="17.15"/><rect width="1.7" height="0.7" x="21.15" y="17.15"/><rect width="2.7" height="0.7" x="17.15" y="20.15"/><rect width="1.7" height="0.7" x="10.15" y="21.15"/><rect width="1.7" height="0.7" x="15.15" y="22.15"/><rect width="1.7" height="0.7" x="13.15" y="23.15"/><rect width="2.7" height="0.7" x="10.15" y="24.15"/><rect width="1.7" height="0.7" x="14.15" y="24.15"/><rect width="1.7" height="0.7" x="18.15" y="24.15"/><rect width="1.7" height="0.7" x="23.15" y="24.15"/></g><g fill="#0B2D97"><rect width="2.9" height="2.9" x="2.05" y="2.05"/><rect width="0.9" height="2.9" x="0.05" y="2.05"/><rect width="0.9" height="2.9" x="6.05" y="2.05"/><rect width="2.9" height="0.9" x="2.05" y="0.05"/><rect width="2.9" height="0.9" x="2.05" y="6.05"/><rect width="2.9" height="2.9" x="20.05" y="2.05"/><rect width="0.9" height="2.9" x="18.05" y="2.05"/><rect width="0.9" height="2.9" x="24.05" y="2.05"/><rect width="2.9" height="0.9" x="20.05" y="0.05"/><rect width="2.9" height="0.9" x="20.05" y="6.05"/><rect width="2.9" height="2.9" x="2.05" y="20.05"/><rect width="0.9" height="2.9" x="0.05" y="20.05"/><rect width="0.9" height="2.9" x="6.05" y="20.05"/><rect width="2.9" height="0.9" x="2.05" y="18.05"/><rect width="2.9" height="0.9" x="2.05" y="24.05"/></g><g fill="none" stroke="#0B2D97" stroke-width="0.7"><line x1="11.25" y1="1.25" x2="13.75" y2="3.75"/><line x1="13.75" y1="1.25" x2="11.25" y2="3.75"/><line x1="14.25" y1="3.25" x2="16.75" y2="5.75"/><line x1="16.75" y1="3.25" x2="14.25" y2="5.75"/><line x1="1.25" y1="8.25" x2="2.75" y2="9.75"/><line x1="2.75" y1="8.25" x2="1.25" y2="9.75"/><line x1="4.25" y1="10.25" x2="6.75" y2="12.75"/><line x1="6.75" y1="10.25" x2="4.25" y2="12.75"/><line x1="11.25" y1="12.25" x2="12.75" y2="13.75"/><line x1="12.75" y1="12.25" x2="11.25" y2="13.75"/><line x1="2.25" y1="15.25" x2="3.75" y2="16.75"/><line x1="3.75" y1="15.25" x2="2.25" y2="16.75"/><line x1="23.25" y1="16.25" x2="24.75" y2="17.75"/><line x1="24.75" y1="16.25" x2="23.25" y2="17.75"/><line x1="20.25" y1="22.25" x2="22.75" y2="24.75"/><line x1="22.75" y1="22.25" x2="20.25" y2="24.75"/></g><g fill="#E02020"><rect width="0.7" height="1.7" x="10.15" y="1.15"/><rect width="0.7" height="0.7" x="10.15" y="3.15"/><rect width="0.7" height="1.7" x="10.15" y="5.15"/><rect width="0.7" height="0.7" x="10.15" y="7.15"/><rect width="0.7" height="2.7" x="14.15" y="9.15"/><rect width="0.7" height="0.7" x="14.15" y="12.15"/><rect width="0.7" height="1.7" x="16.15" y="9.15"/><rect width="0.7" height="0.7" x="16.15" y="11.15"/><rect width="0.7" height="1.7" x="22.15" y="10.15"/><rect width="0.7" height="0.7" x="22.15" y="12.15"/><rect width="0.7" height="1.7" x="17.15" y="12.15"/><rect width="0.7" height="0.7" x="17.15" y="14.15"/><rect width="0.7" height="1.7" x="0.15" y="14.15"/><rect width="0.7" height="0.7" x="0.15" y="16.15"/><rect width="0.7" height="1.7" x="10.15" y="14.15"/><rect width="0.7" height="0.7" x="10.15" y="16.15"/><rect width="0.7" height="5.7" x="20.15" y="14.15"/><rect width="0.7" height="0.7" x="20.15" y="20.15"/><rect width="0.7" height="3.7" x="16.15" y="16.15"/><rect width="0.7" height="0.7" x="16.15" y="20.15"/><rect width="0.7" height="2.7" x="14.15" y="18.15"/><rect width="0.7" height="0.7" x="14.15" y="21.15"/><rect width="0.7" height="1.7" x="23.15" y="18.15"/><rect width="0.7" height="0.7" x="23.15" y="20.15"/><rect width="0.7" height="3.7" x="9.15" y="19.15"/><rect width="0.7" height="0.7" x="9.15" y="23.15"/><rect width="0.7" height="1.7" x="8.15" y="21.15"/><rect width="0.7" height="0.7" x="8.15" y="23.15"/></g></svg>