<svg xmlns="http://www.w3.org/2000/svg" viewBox="-2 -2 29 29" fill="#fff"><g fill="#FFF" stroke="#8ED1FC"><circle cx="9" cy=".5" r=".5" stroke-width=".37"/><circle r=".49" stroke-width=".36" cx="13.5" cy="1"/><circle cx="15" cy=".5" r=".48" stroke-width=".39"/><circle r=".52" cx="12.5" cy="2" stroke-width=".37"/><circle cx="10.5" cy="3" r=".49" stroke-width=".38"/><circle stroke-width=".4" cx="10" cy="3.5" r=".51"/><circle r=".49" cx="14" cy="3.5" stroke-width=".38"/><circle r=".49" stroke-width=".39" cx="16.5" cy="4"/><circle cx="10.5" cy="6" r=".51" stroke-width=".38"/><circle cx="14" cy="5.5" r=".49" stroke-width=".37"/><circle r=".52" cx="16.5" cy="7" stroke-width=".39"/><circle cx="10" cy="7.5" r=".49" stroke-width=".38"/><circle cx="15.5" cy="8" r=".5" stroke-width=".38"/><circle cx="7" cy="8.5" r=".5" stroke-width=".38"/><circle r=".5" cx="14.5" cy="10" stroke-width=".36"/><circle r=".51" stroke-width=".4" cx="16.5" cy="11"/><circle cx="22.5" cy="11" r=".51" stroke-width=".36"/><circle r=".48" cx="8" cy="11.5" stroke-width=".37"/><circle r=".49" cx="11" cy="11.5" stroke-width=".36"/><circle cx="14.5" cy="12" r=".5" stroke-width=".38"/><circle r=".52" cx="16" cy="11.5" stroke-width=".36"/><circle r=".52" cx="6" cy="12.5" stroke-width=".39"/><circle cx="17.5" cy="13" r=".5" stroke-width=".4"/><circle r=".5" cx="19.5" cy="13" stroke-width=".38"/><circle r=".5" stroke-width=".39" cx="1.5" cy="14"/><circle cx="10" cy="13.5" r=".49" stroke-width=".36"/><circle cx="24.5" cy="14" r=".52" stroke-width=".39"/><circle cx=".5" cy="15" r=".49" stroke-width=".37"/><circle r=".5" stroke-width=".4" cx="7" cy="14.5"/><circle cx="20.5" cy="15" r=".5" stroke-width=".36"/><circle cx="24" cy="14.5" r=".48" stroke-width=".36"/><circle cx="7.5" cy="16" r=".49" stroke-width=".37"/><circle cx="10.5" cy="16" r=".51" stroke-width=".38"/><circle r=".48" stroke-width=".37" cx="15" cy="15.5"/><circle r=".48" stroke-width=".37" cx="1" cy="16.5"/><circle cx="5" cy="16.5" r=".5" stroke-width=".39"/><circle cx="7" cy="16.5" r=".48" stroke-width=".37"/><circle cx="16.5" cy="17" r=".51" stroke-width=".39"/><circle r=".52" stroke-width=".37" cx="18" cy="16.5"/><circle cx="20" cy="16.5" r=".52" stroke-width=".39"/><circle r=".51" cx="8.5" cy="18" stroke-width=".39"/><circle r=".49" cx="16.5" cy="19" stroke-width=".38"/><circle r=".52" cx="14.5" cy="20" stroke-width=".39"/><circle r=".52" cx="20.5" cy="20" stroke-width=".39"/><circle r=".48" stroke-width=".39" cx="23.5" cy="20"/><circle cx="17" cy="20.5" r=".49" stroke-width=".37"/><circle cx="19" cy="20.5" r=".48" stroke-width=".37"/><circle cx="15" cy="21.5" r=".48" stroke-width=".37"/><circle cx="22.5" cy="22" r=".5" stroke-width=".39"/><circle r=".51" cx="16" cy="22.5" stroke-width=".37"/><circle r=".52" stroke-width=".39" cx="10.5" cy="24"/><circle r=".48" cx="14" cy="23.5" stroke-width=".36"/><circle cx="12" cy="24.5" r=".52" stroke-width=".37"/><circle r=".52" stroke-width=".37" cx="15" cy="24.5"/><circle r=".5" stroke-width=".38" cx="19" cy="24.5"/><circle cx="22" cy="24.5" r=".51" stroke-width=".37"/><circle cx="24" cy="24.5" r=".51" stroke-width=".37"/><circle cx="11" cy="1" r=".71" stroke-width=".45"/><circle r=".71" stroke-width=".36" cx="16" cy="5"/><circle r="1" stroke-width=".38" cx="11.5" cy="6.5"/><circle cx="16.5" cy="8.5" r="1" stroke-width=".43"/><circle cx="1.5" cy="9.5" r="1" stroke-width=".37"/><circle cx="2" cy="9" r=".71" stroke-width=".56"/><circle cx="3" cy="9" r=".71" stroke-width=".54"/><circle cx="11.5" cy="10.5" r="1" stroke-width=".43"/><circle r="1" cx="4.5" cy="11.5" stroke-width=".36"/><circle r=".71" stroke-width=".55" cx="12" cy="13"/><circle cx="1.5" cy="15.5" r="1" stroke-width=".59"/><circle cx="10.5" cy="15.5" r="1" stroke-width=".57"/><circle cx="3" cy="16" r=".71" stroke-width=".51"/><circle cx="13" cy="16" r=".71" stroke-width=".57"/><circle cx="23.5" cy="17.5" r="1" stroke-width=".34"/><circle r=".71" stroke-width=".48" cx="24" cy="17"/><circle cx="9.5" cy="18.5" r="1" stroke-width=".54"/><circle cx="21" cy="18" r=".71" stroke-width=".44"/><circle cx="24" cy="18" r=".71" stroke-width=".41"/><circle r="1" cx="14.5" cy="19.5" stroke-width=".42"/><circle cx="9.5" cy="21.5" r="1" stroke-width=".37"/><circle r=".71" stroke-width=".37" cx="9" cy="22"/><circle cx="9" cy="23" r=".71" stroke-width=".48"/><circle cx="20.5" cy="23.5" r="1" stroke-width=".57"/><circle cx="12.5" cy="4.5" r=".65" stroke-width=".22"/><circle stroke-width=".23" cx="13.5" cy="4.5" r=".61"/><circle cx="12.5" cy="5.5" r=".49" stroke-width=".22"/><circle r=".57" cx="14.5" cy="7.5" stroke-width=".22"/><circle r=".53" cx="16.5" cy="8.5" stroke-width=".31"/><circle r=".51" cx="5.5" cy="9.5" stroke-width=".2"/><circle cx="17.5" cy="10.5" r=".47" stroke-width=".16"/><circle r=".43" cx="18.5" cy="10.5" stroke-width=".31"/><circle cx="21.5" cy="10.5" r=".44" stroke-width=".21"/><circle cx="1.5" cy="11.5" r=".57" stroke-width=".18"/><circle cx="3.5" cy="12.5" r=".54" stroke-width=".25"/><circle cx="8.5" cy="15.5" r=".49" stroke-width=".29"/><circle r=".58" stroke-width=".16" cx="18.5" cy="15.5"/><circle cx="11.5" cy="17.5" r=".48" stroke-width=".19"/><circle cx="11.5" cy="18.5" r=".65" stroke-width=".16"/><circle r=".65" stroke-width=".23" cx="21.5" cy="21.5"/><circle cx="12.5" cy="23.5" r=".6" stroke-width=".28"/><circle cx="17.5" cy="24.5" r=".61" stroke-width=".3"/></g><g fill="#8ED1FC"><circle cx="16.5" cy=".5" r=".37"/><circle cx="11.5" cy="3.5" r=".27"/><circle cx="8.5" cy="6.5" r=".49"/><circle r=".41" cx="14.5" cy="6.5"/><circle cx="12.5" cy="7.5" r=".29"/><circle r=".41" cx="8.5" cy="8.5"/><circle r=".49" cx="13.5" cy="8.5"/><circle r=".37" cx="24.5" cy="8.5"/><circle r=".32" cx="7.5" cy="9.5"/><circle cx="9.5" cy="9.5" r=".35"/><circle r=".3" cx="17.5" cy="9.5"/><circle cx="19.5" cy="9.5" r=".34"/><circle cx="6.5" cy="10.5" r=".37"/><circle cx="24.5" cy="10.5" r=".35"/><circle cx="18.5" cy="11.5" r=".28"/><circle cx="23.5" cy="11.5" r=".29"/><circle r=".44" cx="8.5" cy="12.5"/><circle cx="20.5" cy="12.5" r=".31"/><circle r=".43" cx="22.5" cy="12.5"/><circle r=".28" cx="2.5" cy="13.5"/><circle r=".42" cx="17.5" cy="14.5"/><circle r=".39" cx="21.5" cy="14.5"/><circle cx="12.5" cy="18.5" r=".34"/><circle r=".43" cx="18.5" cy="18.5"/><circle cx="10.5" cy="19.5" r=".46"/><circle cx="11.5" cy="21.5" r=".43"/><circle cx="24.5" cy="21.5" r=".49"/><circle r=".36" cx="10.5" cy="15.5"/><circle cx="14.5" cy="19.5" r=".47"/></g><g fill="none" stroke="#0693E3" stroke-width="1"><circle cx="3.5" cy="3.5" r="3"/><circle cx="21.5" cy="3.5" r="3"/><circle r="3" cx="3.5" cy="21.5"/></g><g fill="#0693E3"><circle cx="3.5" cy="3.5" r="1.5"/><circle cx="21.5" cy="3.5" r="1.5"/><circle r="1.5" cx="3.5" cy="21.5"/></g></svg>