<svg xmlns="http://www.w3.org/2000/svg" viewBox="-8 -8 57 57"><defs><linearGradient id="gradient" x1="0" y1="0" x2="41" y2="41" gradientUnits="userSpaceOnUse"><stop stop-color="#ffa518" offset="0%"></stop><stop stop-color="#ff1361" offset="100%"></stop></linearGradient></defs><rect x="-8" y="-8" width="57" height="57" fill="url(#gradient)"></rect><rect x="-4" y="-4" width="49" height="49" fill="#ffffff" rx="5%"></rect><g fill="url(#gradient)"><path d="M3.50,0c3,0 3.50,0.50 3.50,3.50s-0.50,3.50 -3.50,3.50s-3.50,-0.50 -3.50,-3.50s0.50,-3.50 3.50,-3.50M3.50,0.90c-2.50,0 -2.60,0.10 -2.60,2.60s0.10,2.60 2.60,2.60s2.60,-0.10 2.60,-2.60s-0.10,-2.60 -2.60,-2.60M3.5,2a1.50,1.50 0,0,0 0,3a1.50,1.50 0,0,0 0,-3M37.50,0c3,0 3.50,0.50 3.50,3.50s-0.50,3.50 -3.50,3.50s-3.50,-0.50 -3.50,-3.50s0.50,-3.50 3.50,-3.50M37.50,0.90c-2.50,0 -2.60,0.10 -2.60,2.60s0.10,2.60 2.60,2.60s2.60,-0.10 2.60,-2.60s-0.10,-2.60 -2.60,-2.60M37.5,2a1.50,1.50 0,0,0 0,3a1.50,1.50 0,0,0 0,-3M3.50,34c3,0 3.50,0.50 3.50,3.50s-0.50,3.50 -3.50,3.50s-3.50,-0.50 -3.50,-3.50s0.50,-3.50 3.50,-3.50M3.50,34.90c-2.50,0 -2.60,0.10 -2.60,2.60s0.10,2.60 2.60,2.60s2.60,-0.10 2.60,-2.60s-0.10,-2.60 -2.60,-2.60M3.5,36a1.50,1.50 0,0,0 0,3a1.50,1.50 0,0,0 0,-3"></path><path d="M20.50,14.75c5.06,0 5.75,0.69 5.75,5.75s-0.69,5.75 -5.75,5.75s-5.75,-0.69 -5.75,-5.75s0.69,-5.75 5.75,-5.75M20.50,15.79c-4.34,0 -4.71,0.37 -4.71,4.71s0.37,4.71 4.71,4.71s4.71,-0.37 4.71,-4.71s-0.37,-4.71 -4.71,-4.71M23.46585,16.82a0.71,0.71 0,0,1 0,1.43a0.71,0.71 0,0,1 0,-1.43M20.5,17.509999999999998a2.99,2.99 0,0,1 0,5.98a2.99,2.99 0,0,1 0,-5.98M20.5,18.545a1.96,1.96 0,0,0 0,3.91a1.96,1.96 0,0,0 0,-3.91"></path><circle cx="8.5" cy="0.5" r="0.34"></circle><circle cx="9.5" cy="0.5" r="0.39"></circle><circle cx="10.5" cy="0.5" r="0.37"></circle><circle cx="11.5" cy="0.5" r="0.35"></circle><circle cx="12.5" cy="0.5" r="0.38"></circle><circle cx="13.5" cy="0.5" r="0.39"></circle><circle cx="15.5" cy="0.5" r="0.35"></circle><circle cx="18.5" cy="0.5" r="0.36"></circle><circle cx="23.5" cy="0.5" r="0.39"></circle><circle cx="24.5" cy="0.5" r="0.35"></circle><circle cx="25.5" cy="0.5" r="0.32"></circle><circle cx="26.5" cy="0.5" r="0.35"></circle><circle cx="27.5" cy="0.5" r="0.36"></circle><circle cx="30.5" cy="0.5" r="0.35"></circle><circle cx="32.5" cy="0.5" r="0.37"></circle><circle cx="8.5" cy="1.5" r="0.39"></circle><circle cx="12.5" cy="1.5" r="0.37"></circle><circle cx="16.5" cy="1.5" r="0.37"></circle><circle cx="17.5" cy="1.5" r="0.36"></circle><circle cx="18.5" cy="1.5" r="0.33"></circle><circle cx="19.5" cy="1.5" r="0.34"></circle><circle cx="23.5" cy="1.5" r="0.32"></circle><circle cx="24.5" cy="1.5" r="0.35"></circle><circle cx="25.5" cy="1.5" r="0.39"></circle><circle cx="26.5" cy="1.5" r="0.40"></circle><circle cx="27.5" cy="1.5" r="0.32"></circle><circle cx="28.5" cy="1.5" r="0.37"></circle><circle cx="30.5" cy="1.5" r="0.31"></circle><circle cx="31.5" cy="1.5" r="0.39"></circle><circle cx="8.5" cy="2.5" r="0.38"></circle><circle cx="9.5" cy="2.5" r="0.33"></circle><circle cx="10.5" cy="2.5" r="0.33"></circle><circle cx="11.5" cy="2.5" r="0.31"></circle><circle cx="12.5" cy="2.5" r="0.40"></circle><circle cx="13.5" cy="2.5" r="0.39"></circle><circle cx="15.5" cy="2.5" r="0.40"></circle><circle cx="17.5" cy="2.5" r="0.35"></circle><circle cx="18.5" cy="2.5" r="0.30"></circle><circle cx="19.5" cy="2.5" r="0.36"></circle><circle cx="20.5" cy="2.5" r="0.39"></circle><circle cx="22.5" cy="2.5" r="0.31"></circle><circle cx="23.5" cy="2.5" r="0.39"></circle><circle cx="25.5" cy="2.5" r="0.30"></circle><circle cx="27.5" cy="2.5" r="0.32"></circle><circle cx="31.5" cy="2.5" r="0.32"></circle><circle cx="32.5" cy="2.5" r="0.36"></circle><circle cx="18.5" cy="3.5" r="0.40"></circle><circle cx="19.5" cy="3.5" r="0.30"></circle><circle cx="20.5" cy="3.5" r="0.34"></circle><circle cx="22.5" cy="3.5" r="0.31"></circle><circle cx="26.5" cy="3.5" r="0.39"></circle><circle cx="27.5" cy="3.5" r="0.32"></circle><circle cx="30.5" cy="3.5" r="0.32"></circle><circle cx="31.5" cy="3.5" r="0.31"></circle><circle cx="32.5" cy="3.5" r="0.33"></circle><circle cx="9.5" cy="4.5" r="0.36"></circle><circle cx="10.5" cy="4.5" r="0.34"></circle><circle cx="11.5" cy="4.5" r="0.35"></circle><circle cx="12.5" cy="4.5" r="0.36"></circle><circle cx="15.5" cy="4.5" r="0.39"></circle><circle cx="21.5" cy="4.5" r="0.35"></circle><circle cx="22.5" cy="4.5" r="0.31"></circle><circle cx="23.5" cy="4.5" r="0.31"></circle><circle cx="27.5" cy="4.5" r="0.38"></circle><circle cx="28.5" cy="4.5" r="0.38"></circle><circle cx="8.5" cy="5.5" r="0.30"></circle><circle cx="9.5" cy="5.5" r="0.39"></circle><circle cx="13.5" cy="5.5" r="0.39"></circle><circle cx="18.5" cy="5.5" r="0.32"></circle><circle cx="19.5" cy="5.5" r="0.35"></circle><circle cx="21.5" cy="5.5" r="0.30"></circle><circle cx="22.5" cy="5.5" r="0.37"></circle><circle cx="23.5" cy="5.5" r="0.38"></circle><circle cx="30.5" cy="5.5" r="0.33"></circle><circle cx="32.5" cy="5.5" r="0.33"></circle><circle cx="8.5" cy="6.5" r="0.35"></circle><circle cx="10.5" cy="6.5" r="0.38"></circle><circle cx="12.5" cy="6.5" r="0.36"></circle><circle cx="14.5" cy="6.5" r="0.33"></circle><circle cx="16.5" cy="6.5" r="0.37"></circle><circle cx="18.5" cy="6.5" r="0.37"></circle><circle cx="20.5" cy="6.5" r="0.32"></circle><circle cx="22.5" cy="6.5" r="0.40"></circle><circle cx="24.5" cy="6.5" r="0.34"></circle><circle cx="26.5" cy="6.5" r="0.36"></circle><circle cx="28.5" cy="6.5" r="0.33"></circle><circle cx="30.5" cy="6.5" r="0.35"></circle><circle cx="32.5" cy="6.5" r="0.35"></circle><circle cx="8.5" cy="7.5" r="0.30"></circle><circle cx="11.5" cy="7.5" r="0.35"></circle><circle cx="12.5" cy="7.5" r="0.35"></circle><circle cx="13.5" cy="7.5" r="0.33"></circle><circle cx="15.5" cy="7.5" r="0.35"></circle><circle cx="17.5" cy="7.5" r="0.34"></circle><circle cx="19.5" cy="7.5" r="0.36"></circle><circle cx="22.5" cy="7.5" r="0.30"></circle><circle cx="23.5" cy="7.5" r="0.34"></circle><circle cx="24.5" cy="7.5" r="0.36"></circle><circle cx="28.5" cy="7.5" r="0.30"></circle><circle cx="2.5" cy="8.5" r="0.37"></circle><circle cx="3.5" cy="8.5" r="0.34"></circle><circle cx="4.5" cy="8.5" r="0.38"></circle><circle cx="6.5" cy="8.5" r="0.34"></circle><circle cx="8.5" cy="8.5" r="0.32"></circle><circle cx="9.5" cy="8.5" r="0.38"></circle><circle cx="13.5" cy="8.5" r="0.36"></circle><circle cx="18.5" cy="8.5" r="0.31"></circle><circle cx="21.5" cy="8.5" r="0.31"></circle><circle cx="23.5" cy="8.5" r="0.36"></circle><circle cx="24.5" cy="8.5" r="0.32"></circle><circle cx="28.5" cy="8.5" r="0.35"></circle><circle cx="30.5" cy="8.5" r="0.39"></circle><circle cx="33.5" cy="8.5" r="0.33"></circle><circle cx="34.5" cy="8.5" r="0.32"></circle><circle cx="35.5" cy="8.5" r="0.39"></circle><circle cx="38.5" cy="8.5" r="0.36"></circle><circle cx="39.5" cy="8.5" r="0.34"></circle><circle cx="40.5" cy="8.5" r="0.37"></circle><circle cx="2.5" cy="9.5" r="0.31"></circle><circle cx="3.5" cy="9.5" r="0.33"></circle><circle cx="5.5" cy="9.5" r="0.31"></circle><circle cx="8.5" cy="9.5" r="0.31"></circle><circle cx="11.5" cy="9.5" r="0.37"></circle><circle cx="14.5" cy="9.5" r="0.39"></circle><circle cx="16.5" cy="9.5" r="0.33"></circle><circle cx="21.5" cy="9.5" r="0.32"></circle><circle cx="23.5" cy="9.5" r="0.37"></circle><circle cx="26.5" cy="9.5" r="0.39"></circle><circle cx="27.5" cy="9.5" r="0.37"></circle><circle cx="29.5" cy="9.5" r="0.34"></circle><circle cx="32.5" cy="9.5" r="0.33"></circle><circle cx="33.5" cy="9.5" r="0.32"></circle><circle cx="35.5" cy="9.5" r="0.37"></circle><circle cx="37.5" cy="9.5" r="0.39"></circle><circle cx="6.5" cy="10.5" r="0.32"></circle><circle cx="7.5" cy="10.5" r="0.37"></circle><circle cx="9.5" cy="10.5" r="0.39"></circle><circle cx="11.5" cy="10.5" r="0.34"></circle><circle cx="12.5" cy="10.5" r="0.39"></circle><circle cx="14.5" cy="10.5" r="0.34"></circle><circle cx="18.5" cy="10.5" r="0.32"></circle><circle cx="22.5" cy="10.5" r="0.30"></circle><circle cx="24.5" cy="10.5" r="0.40"></circle><circle cx="25.5" cy="10.5" r="0.31"></circle><circle cx="27.5" cy="10.5" r="0.35"></circle><circle cx="28.5" cy="10.5" r="0.35"></circle><circle cx="29.5" cy="10.5" r="0.30"></circle><circle cx="31.5" cy="10.5" r="0.34"></circle><circle cx="33.5" cy="10.5" r="0.32"></circle><circle cx="39.5" cy="10.5" r="0.40"></circle><circle cx="1.5" cy="11.5" r="0.36"></circle><circle cx="2.5" cy="11.5" r="0.31"></circle><circle cx="4.5" cy="11.5" r="0.36"></circle><circle cx="5.5" cy="11.5" r="0.35"></circle><circle cx="11.5" cy="11.5" r="0.38"></circle><circle cx="12.5" cy="11.5" r="0.31"></circle><circle cx="13.5" cy="11.5" r="0.31"></circle><circle cx="14.5" cy="11.5" r="0.31"></circle><circle cx="16.5" cy="11.5" r="0.38"></circle><circle cx="17.5" cy="11.5" r="0.38"></circle><circle cx="18.5" cy="11.5" r="0.37"></circle><circle cx="20.5" cy="11.5" r="0.40"></circle><circle cx="22.5" cy="11.5" r="0.37"></circle><circle cx="27.5" cy="11.5" r="0.32"></circle><circle cx="29.5" cy="11.5" r="0.39"></circle><circle cx="30.5" cy="11.5" r="0.38"></circle><circle cx="31.5" cy="11.5" r="0.31"></circle><circle cx="32.5" cy="11.5" r="0.31"></circle><circle cx="35.5" cy="11.5" r="0.34"></circle><circle cx="37.5" cy="11.5" r="0.34"></circle><circle cx="0.5" cy="12.5" r="0.35"></circle><circle cx="2.5" cy="12.5" r="0.39"></circle><circle cx="4.5" cy="12.5" r="0.37"></circle><circle cx="6.5" cy="12.5" r="0.39"></circle><circle cx="9.5" cy="12.5" r="0.32"></circle><circle cx="10.5" cy="12.5" r="0.40"></circle><circle cx="11.5" cy="12.5" r="0.37"></circle><circle cx="12.5" cy="12.5" r="0.34"></circle><circle cx="13.5" cy="12.5" r="0.38"></circle><circle cx="14.5" cy="12.5" r="0.36"></circle><circle cx="15.5" cy="12.5" r="0.32"></circle><circle cx="18.5" cy="12.5" r="0.39"></circle><circle cx="20.5" cy="12.5" r="0.31"></circle><circle cx="23.5" cy="12.5" r="0.34"></circle><circle cx="24.5" cy="12.5" r="0.37"></circle><circle cx="25.5" cy="12.5" r="0.34"></circle><circle cx="26.5" cy="12.5" r="0.40"></circle><circle cx="27.5" cy="12.5" r="0.30"></circle><circle cx="28.5" cy="12.5" r="0.31"></circle><circle cx="31.5" cy="12.5" r="0.34"></circle><circle cx="33.5" cy="12.5" r="0.31"></circle><circle cx="35.5" cy="12.5" r="0.39"></circle><circle cx="36.5" cy="12.5" r="0.35"></circle><circle cx="37.5" cy="12.5" r="0.32"></circle><circle cx="38.5" cy="12.5" r="0.32"></circle><circle cx="39.5" cy="12.5" r="0.34"></circle><circle cx="0.5" cy="13.5" r="0.39"></circle><circle cx="1.5" cy="13.5" r="0.31"></circle><circle cx="3.5" cy="13.5" r="0.40"></circle><circle cx="7.5" cy="13.5" r="0.33"></circle><circle cx="9.5" cy="13.5" r="0.37"></circle><circle cx="10.5" cy="13.5" r="0.33"></circle><circle cx="11.5" cy="13.5" r="0.34"></circle><circle cx="12.5" cy="13.5" r="0.39"></circle><circle cx="13.5" cy="13.5" r="0.37"></circle><circle cx="16.5" cy="13.5" r="0.35"></circle><circle cx="17.5" cy="13.5" r="0.36"></circle><circle cx="23.5" cy="13.5" r="0.40"></circle><circle cx="25.5" cy="13.5" r="0.31"></circle><circle cx="26.5" cy="13.5" r="0.35"></circle><circle cx="27.5" cy="13.5" r="0.34"></circle><circle cx="30.5" cy="13.5" r="0.31"></circle><circle cx="32.5" cy="13.5" r="0.31"></circle><circle cx="36.5" cy="13.5" r="0.35"></circle><circle cx="37.5" cy="13.5" r="0.36"></circle><circle cx="38.5" cy="13.5" r="0.38"></circle><circle cx="39.5" cy="13.5" r="0.35"></circle><circle cx="1.5" cy="14.5" r="0.33"></circle><circle cx="2.5" cy="14.5" r="0.35"></circle><circle cx="4.5" cy="14.5" r="0.30"></circle><circle cx="6.5" cy="14.5" r="0.30"></circle><circle cx="7.5" cy="14.5" r="0.39"></circle><circle cx="8.5" cy="14.5" r="0.34"></circle><circle cx="9.5" cy="14.5" r="0.40"></circle><circle cx="10.5" cy="14.5" r="0.36"></circle><circle cx="13.5" cy="14.5" r="0.38"></circle><circle cx="27.5" cy="14.5" r="0.38"></circle><circle cx="28.5" cy="14.5" r="0.32"></circle><circle cx="30.5" cy="14.5" r="0.31"></circle><circle cx="31.5" cy="14.5" r="0.32"></circle><circle cx="33.5" cy="14.5" r="0.35"></circle><circle cx="35.5" cy="14.5" r="0.31"></circle><circle cx="36.5" cy="14.5" r="0.38"></circle><circle cx="38.5" cy="14.5" r="0.39"></circle><circle cx="40.5" cy="14.5" r="0.37"></circle><circle cx="2.5" cy="15.5" r="0.37"></circle><circle cx="3.5" cy="15.5" r="0.39"></circle><circle cx="13.5" cy="15.5" r="0.35"></circle><circle cx="27.5" cy="15.5" r="0.39"></circle><circle cx="31.5" cy="15.5" r="0.36"></circle><circle cx="32.5" cy="15.5" r="0.38"></circle><circle cx="36.5" cy="15.5" r="0.33"></circle><circle cx="37.5" cy="15.5" r="0.37"></circle><circle cx="38.5" cy="15.5" r="0.36"></circle><circle cx="39.5" cy="15.5" r="0.39"></circle><circle cx="40.5" cy="15.5" r="0.33"></circle><circle cx="2.5" cy="16.5" r="0.33"></circle><circle cx="4.5" cy="16.5" r="0.39"></circle><circle cx="6.5" cy="16.5" r="0.32"></circle><circle cx="8.5" cy="16.5" r="0.34"></circle><circle cx="10.5" cy="16.5" r="0.34"></circle><circle cx="11.5" cy="16.5" r="0.39"></circle><circle cx="13.5" cy="16.5" r="0.36"></circle><circle cx="27.5" cy="16.5" r="0.38"></circle><circle cx="30.5" cy="16.5" r="0.31"></circle><circle cx="31.5" cy="16.5" r="0.33"></circle><circle cx="32.5" cy="16.5" r="0.39"></circle><circle cx="40.5" cy="16.5" r="0.36"></circle><circle cx="1.5" cy="17.5" r="0.36"></circle><circle cx="4.5" cy="17.5" r="0.31"></circle><circle cx="8.5" cy="17.5" r="0.38"></circle><circle cx="10.5" cy="17.5" r="0.34"></circle><circle cx="11.5" cy="17.5" r="0.34"></circle><circle cx="27.5" cy="17.5" r="0.36"></circle><circle cx="28.5" cy="17.5" r="0.39"></circle><circle cx="29.5" cy="17.5" r="0.34"></circle><circle cx="34.5" cy="17.5" r="0.39"></circle><circle cx="35.5" cy="17.5" r="0.39"></circle><circle cx="36.5" cy="17.5" r="0.32"></circle><circle cx="2.5" cy="18.5" r="0.40"></circle><circle cx="5.5" cy="18.5" r="0.33"></circle><circle cx="6.5" cy="18.5" r="0.36"></circle><circle cx="9.5" cy="18.5" r="0.38"></circle><circle cx="12.5" cy="18.5" r="0.35"></circle><circle cx="29.5" cy="18.5" r="0.39"></circle><circle cx="32.5" cy="18.5" r="0.39"></circle><circle cx="34.5" cy="18.5" r="0.35"></circle><circle cx="37.5" cy="18.5" r="0.37"></circle><circle cx="39.5" cy="18.5" r="0.31"></circle><circle cx="2.5" cy="19.5" r="0.32"></circle><circle cx="3.5" cy="19.5" r="0.31"></circle><circle cx="5.5" cy="19.5" r="0.39"></circle><circle cx="7.5" cy="19.5" r="0.39"></circle><circle cx="8.5" cy="19.5" r="0.38"></circle><circle cx="11.5" cy="19.5" r="0.38"></circle><circle cx="12.5" cy="19.5" r="0.39"></circle><circle cx="13.5" cy="19.5" r="0.35"></circle><circle cx="28.5" cy="19.5" r="0.35"></circle><circle cx="29.5" cy="19.5" r="0.34"></circle><circle cx="30.5" cy="19.5" r="0.35"></circle><circle cx="33.5" cy="19.5" r="0.34"></circle><circle cx="34.5" cy="19.5" r="0.31"></circle><circle cx="36.5" cy="19.5" r="0.35"></circle><circle cx="0.5" cy="20.5" r="0.35"></circle><circle cx="2.5" cy="20.5" r="0.36"></circle><circle cx="6.5" cy="20.5" r="0.38"></circle><circle cx="7.5" cy="20.5" r="0.33"></circle><circle cx="9.5" cy="20.5" r="0.33"></circle><circle cx="10.5" cy="20.5" r="0.33"></circle><circle cx="12.5" cy="20.5" r="0.32"></circle><circle cx="13.5" cy="20.5" r="0.38"></circle><circle cx="28.5" cy="20.5" r="0.32"></circle><circle cx="34.5" cy="20.5" r="0.37"></circle><circle cx="36.5" cy="20.5" r="0.32"></circle><circle cx="37.5" cy="20.5" r="0.30"></circle><circle cx="39.5" cy="20.5" r="0.37"></circle><circle cx="2.5" cy="21.5" r="0.32"></circle><circle cx="8.5" cy="21.5" r="0.30"></circle><circle cx="9.5" cy="21.5" r="0.34"></circle><circle cx="10.5" cy="21.5" r="0.34"></circle><circle cx="11.5" cy="21.5" r="0.30"></circle><circle cx="12.5" cy="21.5" r="0.32"></circle><circle cx="27.5" cy="21.5" r="0.33"></circle><circle cx="29.5" cy="21.5" r="0.30"></circle><circle cx="30.5" cy="21.5" r="0.35"></circle><circle cx="32.5" cy="21.5" r="0.34"></circle><circle cx="33.5" cy="21.5" r="0.33"></circle><circle cx="35.5" cy="21.5" r="0.39"></circle><circle cx="37.5" cy="21.5" r="0.32"></circle><circle cx="38.5" cy="21.5" r="0.36"></circle><circle cx="39.5" cy="21.5" r="0.39"></circle><circle cx="40.5" cy="21.5" r="0.35"></circle><circle cx="0.5" cy="22.5" r="0.31"></circle><circle cx="2.5" cy="22.5" r="0.33"></circle><circle cx="5.5" cy="22.5" r="0.35"></circle><circle cx="6.5" cy="22.5" r="0.35"></circle><circle cx="9.5" cy="22.5" r="0.31"></circle><circle cx="10.5" cy="22.5" r="0.39"></circle><circle cx="13.5" cy="22.5" r="0.40"></circle><circle cx="27.5" cy="22.5" r="0.35"></circle><circle cx="28.5" cy="22.5" r="0.32"></circle><circle cx="29.5" cy="22.5" r="0.40"></circle><circle cx="31.5" cy="22.5" r="0.36"></circle><circle cx="33.5" cy="22.5" r="0.38"></circle><circle cx="38.5" cy="22.5" r="0.39"></circle><circle cx="0.5" cy="23.5" r="0.39"></circle><circle cx="2.5" cy="23.5" r="0.31"></circle><circle cx="4.5" cy="23.5" r="0.37"></circle><circle cx="7.5" cy="23.5" r="0.38"></circle><circle cx="13.5" cy="23.5" r="0.37"></circle><circle cx="27.5" cy="23.5" r="0.35"></circle><circle cx="29.5" cy="23.5" r="0.30"></circle><circle cx="30.5" cy="23.5" r="0.31"></circle><circle cx="31.5" cy="23.5" r="0.33"></circle><circle cx="32.5" cy="23.5" r="0.33"></circle><circle cx="35.5" cy="23.5" r="0.38"></circle><circle cx="37.5" cy="23.5" r="0.36"></circle><circle cx="38.5" cy="23.5" r="0.31"></circle><circle cx="40.5" cy="23.5" r="0.34"></circle><circle cx="0.5" cy="24.5" r="0.33"></circle><circle cx="3.5" cy="24.5" r="0.34"></circle><circle cx="5.5" cy="24.5" r="0.32"></circle><circle cx="6.5" cy="24.5" r="0.36"></circle><circle cx="9.5" cy="24.5" r="0.33"></circle><circle cx="10.5" cy="24.5" r="0.40"></circle><circle cx="11.5" cy="24.5" r="0.38"></circle><circle cx="12.5" cy="24.5" r="0.38"></circle><circle cx="13.5" cy="24.5" r="0.30"></circle><circle cx="27.5" cy="24.5" r="0.33"></circle><circle cx="31.5" cy="24.5" r="0.33"></circle><circle cx="33.5" cy="24.5" r="0.40"></circle><circle cx="35.5" cy="24.5" r="0.30"></circle><circle cx="36.5" cy="24.5" r="0.33"></circle><circle cx="1.5" cy="25.5" r="0.37"></circle><circle cx="4.5" cy="25.5" r="0.33"></circle><circle cx="5.5" cy="25.5" r="0.31"></circle><circle cx="7.5" cy="25.5" r="0.31"></circle><circle cx="8.5" cy="25.5" r="0.31"></circle><circle cx="10.5" cy="25.5" r="0.38"></circle><circle cx="12.5" cy="25.5" r="0.31"></circle><circle cx="13.5" cy="25.5" r="0.31"></circle><circle cx="27.5" cy="25.5" r="0.34"></circle><circle cx="28.5" cy="25.5" r="0.38"></circle><circle cx="30.5" cy="25.5" r="0.33"></circle><circle cx="36.5" cy="25.5" r="0.32"></circle><circle cx="37.5" cy="25.5" r="0.35"></circle><circle cx="39.5" cy="25.5" r="0.40"></circle><circle cx="5.5" cy="26.5" r="0.36"></circle><circle cx="6.5" cy="26.5" r="0.37"></circle><circle cx="10.5" cy="26.5" r="0.35"></circle><circle cx="11.5" cy="26.5" r="0.35"></circle><circle cx="13.5" cy="26.5" r="0.35"></circle><circle cx="30.5" cy="26.5" r="0.32"></circle><circle cx="32.5" cy="26.5" r="0.37"></circle><circle cx="34.5" cy="26.5" r="0.33"></circle><circle cx="35.5" cy="26.5" r="0.34"></circle><circle cx="36.5" cy="26.5" r="0.36"></circle><circle cx="37.5" cy="26.5" r="0.36"></circle><circle cx="40.5" cy="26.5" r="0.32"></circle><circle cx="3.5" cy="27.5" r="0.37"></circle><circle cx="5.5" cy="27.5" r="0.39"></circle><circle cx="8.5" cy="27.5" r="0.31"></circle><circle cx="9.5" cy="27.5" r="0.36"></circle><circle cx="10.5" cy="27.5" r="0.32"></circle><circle cx="12.5" cy="27.5" r="0.32"></circle><circle cx="13.5" cy="27.5" r="0.32"></circle><circle cx="16.5" cy="27.5" r="0.32"></circle><circle cx="17.5" cy="27.5" r="0.40"></circle><circle cx="18.5" cy="27.5" r="0.34"></circle><circle cx="19.5" cy="27.5" r="0.40"></circle><circle cx="24.5" cy="27.5" r="0.36"></circle><circle cx="26.5" cy="27.5" r="0.38"></circle><circle cx="28.5" cy="27.5" r="0.31"></circle><circle cx="31.5" cy="27.5" r="0.34"></circle><circle cx="33.5" cy="27.5" r="0.33"></circle><circle cx="34.5" cy="27.5" r="0.34"></circle><circle cx="36.5" cy="27.5" r="0.30"></circle><circle cx="37.5" cy="27.5" r="0.31"></circle><circle cx="39.5" cy="27.5" r="0.36"></circle><circle cx="40.5" cy="27.5" r="0.36"></circle><circle cx="0.5" cy="28.5" r="0.40"></circle><circle cx="6.5" cy="28.5" r="0.36"></circle><circle cx="7.5" cy="28.5" r="0.30"></circle><circle cx="9.5" cy="28.5" r="0.37"></circle><circle cx="10.5" cy="28.5" r="0.32"></circle><circle cx="11.5" cy="28.5" r="0.35"></circle><circle cx="14.5" cy="28.5" r="0.38"></circle><circle cx="15.5" cy="28.5" r="0.39"></circle><circle cx="17.5" cy="28.5" r="0.38"></circle><circle cx="20.5" cy="28.5" r="0.36"></circle><circle cx="22.5" cy="28.5" r="0.32"></circle><circle cx="23.5" cy="28.5" r="0.36"></circle><circle cx="26.5" cy="28.5" r="0.34"></circle><circle cx="30.5" cy="28.5" r="0.35"></circle><circle cx="32.5" cy="28.5" r="0.40"></circle><circle cx="34.5" cy="28.5" r="0.39"></circle><circle cx="36.5" cy="28.5" r="0.30"></circle><circle cx="38.5" cy="28.5" r="0.38"></circle><circle cx="40.5" cy="28.5" r="0.40"></circle><circle cx="0.5" cy="29.5" r="0.36"></circle><circle cx="2.5" cy="29.5" r="0.33"></circle><circle cx="4.5" cy="29.5" r="0.32"></circle><circle cx="8.5" cy="29.5" r="0.34"></circle><circle cx="9.5" cy="29.5" r="0.34"></circle><circle cx="14.5" cy="29.5" r="0.40"></circle><circle cx="16.5" cy="29.5" r="0.34"></circle><circle cx="17.5" cy="29.5" r="0.32"></circle><circle cx="18.5" cy="29.5" r="0.39"></circle><circle cx="19.5" cy="29.5" r="0.34"></circle><circle cx="20.5" cy="29.5" r="0.40"></circle><circle cx="21.5" cy="29.5" r="0.32"></circle><circle cx="24.5" cy="29.5" r="0.31"></circle><circle cx="25.5" cy="29.5" r="0.34"></circle><circle cx="27.5" cy="29.5" r="0.33"></circle><circle cx="28.5" cy="29.5" r="0.36"></circle><circle cx="29.5" cy="29.5" r="0.34"></circle><circle cx="33.5" cy="29.5" r="0.31"></circle><circle cx="35.5" cy="29.5" r="0.38"></circle><circle cx="0.5" cy="30.5" r="0.35"></circle><circle cx="2.5" cy="30.5" r="0.36"></circle><circle cx="4.5" cy="30.5" r="0.36"></circle><circle cx="6.5" cy="30.5" r="0.31"></circle><circle cx="10.5" cy="30.5" r="0.40"></circle><circle cx="13.5" cy="30.5" r="0.36"></circle><circle cx="17.5" cy="30.5" r="0.38"></circle><circle cx="18.5" cy="30.5" r="0.33"></circle><circle cx="21.5" cy="30.5" r="0.35"></circle><circle cx="24.5" cy="30.5" r="0.30"></circle><circle cx="25.5" cy="30.5" r="0.35"></circle><circle cx="29.5" cy="30.5" r="0.35"></circle><circle cx="32.5" cy="30.5" r="0.31"></circle><circle cx="33.5" cy="30.5" r="0.38"></circle><circle cx="37.5" cy="30.5" r="0.40"></circle><circle cx="39.5" cy="30.5" r="0.35"></circle><circle cx="0.5" cy="31.5" r="0.36"></circle><circle cx="2.5" cy="31.5" r="0.32"></circle><circle cx="5.5" cy="31.5" r="0.34"></circle><circle cx="7.5" cy="31.5" r="0.32"></circle><circle cx="10.5" cy="31.5" r="0.34"></circle><circle cx="11.5" cy="31.5" r="0.34"></circle><circle cx="12.5" cy="31.5" r="0.30"></circle><circle cx="13.5" cy="31.5" r="0.37"></circle><circle cx="15.5" cy="31.5" r="0.33"></circle><circle cx="17.5" cy="31.5" r="0.34"></circle><circle cx="19.5" cy="31.5" r="0.36"></circle><circle cx="24.5" cy="31.5" r="0.31"></circle><circle cx="25.5" cy="31.5" r="0.35"></circle><circle cx="26.5" cy="31.5" r="0.40"></circle><circle cx="28.5" cy="31.5" r="0.32"></circle><circle cx="29.5" cy="31.5" r="0.40"></circle><circle cx="30.5" cy="31.5" r="0.37"></circle><circle cx="34.5" cy="31.5" r="0.35"></circle><circle cx="35.5" cy="31.5" r="0.35"></circle><circle cx="0.5" cy="32.5" r="0.33"></circle><circle cx="3.5" cy="32.5" r="0.40"></circle><circle cx="4.5" cy="32.5" r="0.39"></circle><circle cx="5.5" cy="32.5" r="0.37"></circle><circle cx="6.5" cy="32.5" r="0.31"></circle><circle cx="9.5" cy="32.5" r="0.37"></circle><circle cx="11.5" cy="32.5" r="0.34"></circle><circle cx="13.5" cy="32.5" r="0.35"></circle><circle cx="14.5" cy="32.5" r="0.31"></circle><circle cx="16.5" cy="32.5" r="0.32"></circle><circle cx="17.5" cy="32.5" r="0.35"></circle><circle cx="21.5" cy="32.5" r="0.34"></circle><circle cx="25.5" cy="32.5" r="0.35"></circle><circle cx="28.5" cy="32.5" r="0.36"></circle><circle cx="32.5" cy="32.5" r="0.35"></circle><circle cx="33.5" cy="32.5" r="0.36"></circle><circle cx="34.5" cy="32.5" r="0.32"></circle><circle cx="35.5" cy="32.5" r="0.36"></circle><circle cx="36.5" cy="32.5" r="0.33"></circle><circle cx="37.5" cy="32.5" r="0.33"></circle><circle cx="39.5" cy="32.5" r="0.39"></circle><circle cx="8.5" cy="33.5" r="0.32"></circle><circle cx="10.5" cy="33.5" r="0.31"></circle><circle cx="12.5" cy="33.5" r="0.37"></circle><circle cx="13.5" cy="33.5" r="0.33"></circle><circle cx="16.5" cy="33.5" r="0.32"></circle><circle cx="19.5" cy="33.5" r="0.40"></circle><circle cx="20.5" cy="33.5" r="0.32"></circle><circle cx="21.5" cy="33.5" r="0.36"></circle><circle cx="22.5" cy="33.5" r="0.36"></circle><circle cx="23.5" cy="33.5" r="0.34"></circle><circle cx="25.5" cy="33.5" r="0.39"></circle><circle cx="27.5" cy="33.5" r="0.33"></circle><circle cx="30.5" cy="33.5" r="0.31"></circle><circle cx="32.5" cy="33.5" r="0.33"></circle><circle cx="36.5" cy="33.5" r="0.36"></circle><circle cx="37.5" cy="33.5" r="0.34"></circle><circle cx="38.5" cy="33.5" r="0.38"></circle><circle cx="39.5" cy="33.5" r="0.30"></circle><circle cx="10.5" cy="34.5" r="0.39"></circle><circle cx="12.5" cy="34.5" r="0.35"></circle><circle cx="13.5" cy="34.5" r="0.33"></circle><circle cx="16.5" cy="34.5" r="0.38"></circle><circle cx="17.5" cy="34.5" r="0.39"></circle><circle cx="21.5" cy="34.5" r="0.30"></circle><circle cx="22.5" cy="34.5" r="0.32"></circle><circle cx="23.5" cy="34.5" r="0.30"></circle><circle cx="24.5" cy="34.5" r="0.33"></circle><circle cx="25.5" cy="34.5" r="0.38"></circle><circle cx="27.5" cy="34.5" r="0.37"></circle><circle cx="28.5" cy="34.5" r="0.31"></circle><circle cx="30.5" cy="34.5" r="0.35"></circle><circle cx="32.5" cy="34.5" r="0.38"></circle><circle cx="34.5" cy="34.5" r="0.30"></circle><circle cx="36.5" cy="34.5" r="0.37"></circle><circle cx="38.5" cy="34.5" r="0.34"></circle><circle cx="40.5" cy="34.5" r="0.30"></circle><circle cx="9.5" cy="35.5" r="0.32"></circle><circle cx="10.5" cy="35.5" r="0.37"></circle><circle cx="12.5" cy="35.5" r="0.37"></circle><circle cx="13.5" cy="35.5" r="0.36"></circle><circle cx="15.5" cy="35.5" r="0.32"></circle><circle cx="16.5" cy="35.5" r="0.33"></circle><circle cx="17.5" cy="35.5" r="0.33"></circle><circle cx="18.5" cy="35.5" r="0.31"></circle><circle cx="24.5" cy="35.5" r="0.33"></circle><circle cx="26.5" cy="35.5" r="0.35"></circle><circle cx="27.5" cy="35.5" r="0.39"></circle><circle cx="31.5" cy="35.5" r="0.40"></circle><circle cx="32.5" cy="35.5" r="0.35"></circle><circle cx="36.5" cy="35.5" r="0.34"></circle><circle cx="37.5" cy="35.5" r="0.40"></circle><circle cx="38.5" cy="35.5" r="0.35"></circle><circle cx="39.5" cy="35.5" r="0.36"></circle><circle cx="40.5" cy="35.5" r="0.32"></circle><circle cx="8.5" cy="36.5" r="0.40"></circle><circle cx="9.5" cy="36.5" r="0.39"></circle><circle cx="10.5" cy="36.5" r="0.39"></circle><circle cx="14.5" cy="36.5" r="0.36"></circle><circle cx="17.5" cy="36.5" r="0.31"></circle><circle cx="19.5" cy="36.5" r="0.40"></circle><circle cx="20.5" cy="36.5" r="0.40"></circle><circle cx="22.5" cy="36.5" r="0.30"></circle><circle cx="23.5" cy="36.5" r="0.38"></circle><circle cx="26.5" cy="36.5" r="0.33"></circle><circle cx="27.5" cy="36.5" r="0.32"></circle><circle cx="30.5" cy="36.5" r="0.31"></circle><circle cx="31.5" cy="36.5" r="0.39"></circle><circle cx="32.5" cy="36.5" r="0.38"></circle><circle cx="33.5" cy="36.5" r="0.35"></circle><circle cx="34.5" cy="36.5" r="0.34"></circle><circle cx="35.5" cy="36.5" r="0.39"></circle><circle cx="36.5" cy="36.5" r="0.36"></circle><circle cx="40.5" cy="36.5" r="0.34"></circle><circle cx="8.5" cy="37.5" r="0.35"></circle><circle cx="13.5" cy="37.5" r="0.31"></circle><circle cx="14.5" cy="37.5" r="0.35"></circle><circle cx="16.5" cy="37.5" r="0.33"></circle><circle cx="17.5" cy="37.5" r="0.34"></circle><circle cx="18.5" cy="37.5" r="0.32"></circle><circle cx="19.5" cy="37.5" r="0.36"></circle><circle cx="20.5" cy="37.5" r="0.35"></circle><circle cx="24.5" cy="37.5" r="0.36"></circle><circle cx="27.5" cy="37.5" r="0.39"></circle><circle cx="28.5" cy="37.5" r="0.31"></circle><circle cx="32.5" cy="37.5" r="0.34"></circle><circle cx="39.5" cy="37.5" r="0.31"></circle><circle cx="8.5" cy="38.5" r="0.39"></circle><circle cx="9.5" cy="38.5" r="0.32"></circle><circle cx="13.5" cy="38.5" r="0.32"></circle><circle cx="17.5" cy="38.5" r="0.39"></circle><circle cx="21.5" cy="38.5" r="0.37"></circle><circle cx="24.5" cy="38.5" r="0.31"></circle><circle cx="25.5" cy="38.5" r="0.31"></circle><circle cx="26.5" cy="38.5" r="0.33"></circle><circle cx="30.5" cy="38.5" r="0.31"></circle><circle cx="31.5" cy="38.5" r="0.38"></circle><circle cx="32.5" cy="38.5" r="0.37"></circle><circle cx="34.5" cy="38.5" r="0.36"></circle><circle cx="35.5" cy="38.5" r="0.39"></circle><circle cx="36.5" cy="38.5" r="0.33"></circle><circle cx="37.5" cy="38.5" r="0.37"></circle><circle cx="39.5" cy="38.5" r="0.37"></circle><circle cx="11.5" cy="39.5" r="0.35"></circle><circle cx="12.5" cy="39.5" r="0.35"></circle><circle cx="14.5" cy="39.5" r="0.40"></circle><circle cx="15.5" cy="39.5" r="0.32"></circle><circle cx="19.5" cy="39.5" r="0.35"></circle><circle cx="22.5" cy="39.5" r="0.37"></circle><circle cx="24.5" cy="39.5" r="0.32"></circle><circle cx="28.5" cy="39.5" r="0.30"></circle><circle cx="31.5" cy="39.5" r="0.33"></circle><circle cx="33.5" cy="39.5" r="0.34"></circle><circle cx="35.5" cy="39.5" r="0.31"></circle><circle cx="36.5" cy="39.5" r="0.34"></circle><circle cx="39.5" cy="39.5" r="0.38"></circle><circle cx="9.5" cy="40.5" r="0.35"></circle><circle cx="11.5" cy="40.5" r="0.31"></circle><circle cx="13.5" cy="40.5" r="0.38"></circle><circle cx="14.5" cy="40.5" r="0.40"></circle><circle cx="17.5" cy="40.5" r="0.32"></circle><circle cx="18.5" cy="40.5" r="0.31"></circle><circle cx="20.5" cy="40.5" r="0.37"></circle><circle cx="21.5" cy="40.5" r="0.33"></circle><circle cx="24.5" cy="40.5" r="0.30"></circle><circle cx="26.5" cy="40.5" r="0.34"></circle><circle cx="28.5" cy="40.5" r="0.38"></circle><circle cx="30.5" cy="40.5" r="0.30"></circle><circle cx="35.5" cy="40.5" r="0.32"></circle><circle cx="37.5" cy="40.5" r="0.31"></circle></g></svg>