<svg xmlns="http://www.w3.org/2000/svg" viewBox="-5 -5 35 35">
  <path fill="#f6b506" d="M7.3-2.3h.8v.8h-.8zM9.7-2.3h.8v.8h-.8zM12.1-1.1h.8v.8h-.8zM15.7.1h.8v.8h-.8z" style="stroke-width:1.2"/>
  <path fill="#0b2d97" d="M0 0h3.5v3.5H0zM-2.4 0h1.1v3.5h-1.1zM4.8 0h1.1v3.5H4.8zM0-2.4h3.5v1.1H0zM0 4.8h3.5v1.1H0zM21.6 0h3.5v3.5h-3.5zM19.2 0h1.1v3.5h-1.1zM26.4 0h1.1v3.5h-1.1zM21.6-2.4h3.5v1.1h-3.5zM21.6 4.8h3.5v1.1h-3.5z" style="stroke-width:1.2"/>
  <path fill="#f6b506" d="M10.9 3.7h.8v.8h-.8zM13.3 3.7h.8v.8h-.8zM15.7 3.7h.8v.8h-.8zM7.3 4.9h.8v.8h-.8zM9.7 4.9h.8v.8h-.8zM12.1 4.9h.8v.8h-.8zM14.5 6.1h.8v.8h-.8zM-2.3 7.3h.8v.8h-.8zM9.7 7.3h.8v.8h-.8zM13.3 7.3h.8v.8h-.8zM24.1 7.3h.8v.8h-.8zM26.5 7.3h.8v.8h-.8zM6.1 8.5h.8v.8h-.8zM10.9 8.5h.8v.8h-.8zM14.5 8.5h.8v.8h-.8zM20.5 8.5h.8v.8h-.8zM-1.1 9.7h.8v.8h-.8zM12.1 9.7h.8v.8h-.8zM22.9 9.7h.8v.8h-.8zM26.5 9.7h.8v.8h-.8zM3.7 10.9h.8v.8h-.8zM10.9 10.9h.8v.8h-.8zM19.3 10.9h.8v.8h-.8zM25.3 10.9h.8v.8h-.8zM6.1 12.1h.8v.8h-.8zM7.3 13.3h.8v.8h-.8zM20.5 13.3h.8v.8h-.8zM24.1 13.3h.8v.8h-.8zM26.5 13.3h.8v.8h-.8zM6.1 14.5h.8v.8h-.8zM-1.1 16.9h.8v.8h-.8zM3.7 16.9h.8v.8h-.8zM6.1 16.9h.8v.8h-.8zM9.7 18.1h.8v.8h-.8zM22.9 18.1h.8v.8h-.8zM19.3 19.3h.8v.8h-.8zM26.5 19.3h.8v.8h-.8zM7.3 20.5h.8v.8h-.8zM13.3 20.5h.8v.8h-.8zM22.9 21.7h.8v.8h-.8z" style="stroke-width:1.2"/>
  <path fill="#0b2d97" d="M0 21.6h3.5v3.5H0zM-2.4 21.6h1.1v3.5h-1.1zM4.8 21.6h1.1v3.5H4.8zM0 19.2h3.5v1.1H0zM0 26.4h3.5v1.1H0z" style="stroke-width:1.2"/>
  <path fill="#f6b506" d="M8.5 22.9h.8v.8h-.8zM10.9 22.9h.8v.8h-.8zM14.5 22.9h.8v.8h-.8zM24.1 22.9h.8v.8h-.8zM26.5 22.9h.8v.8h-.8zM7.3 24.1h.8v.8h-.8zM14.5 24.1h.8v.8h-.8zM22.9 24.1h.8v.8h-.8zM8.5 25.3h.8v.8h-.8zM13.3 25.3h.8v.8h-.8zM16.9 25.3h.8v.8h-.8zM21.7 26.5h.8v.8h-.8zM24.1 26.5h.8v.8h-.8zM26.5 26.5h.8v.8h-.8z" style="stroke-width:1.2"/>
  <path fill="none" stroke="#0b2d97" stroke-width=".7" d="m11-1 3 3M14-1l-3 3M8.6 1.4l1.8 1.8M10.4 1.4 8.6 3.2M14.6 5l3 3M17.6 5l-3 3M5 9.8l3 3M8 9.8l-3 3M17 13.4l1.8 1.8M18.8 13.4 17 15.2M.2 14.6 2 16.4M2 14.6.2 16.4M5 14.6l3 3M8 14.6l-3 3M24.2 20.6l1.8 1.8M26 20.6l-1.8 1.8"/>
  <path fill="#e02020" d="M14.5-2.3h.8v4.4h-.8zM14.5 2.5h.8v.8h-.8zM16.9-2.3h.8V.9h-.8zM16.9 1.3h.8v.8h-.8z" style="stroke-width:1.2"/>
  <path fill="#f6b506" d="M7.3.1h2v.8h-2zM7.3 6.1h2v.8h-2zM10.9 6.1h2v.8h-2z" style="stroke-width:1.2"/>
  <path fill="#e02020" d="M.1 7.3h.8v3.2H.1zM.1 10.9h.8v.8H.1z" style="stroke-width:1.2"/>
  <path fill="#f6b506" d="M3.7 7.3h2v.8h-2z" style="stroke-width:1.2"/>
  <path fill="#e02020" d="M8.5 7.3h.8v2h-.8zM8.5 9.7h.8v.8h-.8z" style="stroke-width:1.2"/>
  <path fill="#f6b506" d="M18.1 7.3h2v.8h-2zM-2.3 8.5h2v.8h-2z" style="stroke-width:1.2"/>
  <path fill="#e02020" d="M1.3 8.5h.8v3.2h-.8zM1.3 12.1h.8v.8h-.8z" style="stroke-width:1.2"/>
  <path fill="#f6b506" d="M16.9 8.5h2v.8h-2z" style="stroke-width:1.2"/>
  <path fill="#e02020" d="M15.7 9.7h.8v2h-.8zM15.7 12.1h.8v.8h-.8zM21.7 9.7h.8v3.2h-.8zM21.7 13.3h.8v.8h-.8zM2.5 10.9h.8v3.2h-.8zM2.5 14.5h.8v.8h-.8zM-1.1 12.1h.8v2h-.8zM-1.1 14.5h.8v.8h-.8zM8.5 12.1h.8v8h-.8zM8.5 20.5h.8v.8h-.8z" style="stroke-width:1.2"/>
  <path fill="#f6b506" d="M12.1 12.1h3.2v.8h-3.2zM22.9 12.1h3.2v.8h-3.2zM10.9 13.3h2v.8h-2z" style="stroke-width:1.2"/>
  <path fill="#e02020" d="M14.5 13.3h.8v5.6h-.8zM14.5 19.3h.8v.8h-.8zM-2.3 14.5h.8v2h-.8zM-2.3 16.9h.8v.8h-.8zM15.7 14.5h.8v2h-.8zM15.7 16.9h.8v.8h-.8z" style="stroke-width:1.2"/>
  <path fill="#f6b506" d="M24.1 14.5h3.2v.8h-3.2zM9.7 15.7h4.4v.8H9.7z" style="stroke-width:1.2"/>
  <path fill="#e02020" d="M21.7 15.7h.8v5.6h-.8zM21.7 21.7h.8v.8h-.8z" style="stroke-width:1.2"/>
  <path fill="#f6b506" d="M12.1 16.9h2v.8h-2z" style="stroke-width:1.2"/>
  <path fill="#e02020" d="M16.9 16.9h.8v4.4h-.8zM16.9 21.7h.8v.8h-.8z" style="stroke-width:1.2"/>
  <path fill="#f6b506" d="M18.1 16.9h3.2v.8h-3.2zM22.9 16.9h4.4v.8h-4.4zM25.3 18.1h2v.8h-2zM9.7 19.3h4.4v.8H9.7z" style="stroke-width:1.2"/>
  <path fill="#e02020" d="M15.7 19.3h.8v3.2h-.8zM15.7 22.9h.8v.8h-.8zM9.7 21.7h.8v2h-.8zM9.7 24.1h.8v.8h-.8z" style="stroke-width:1.2"/>
  <path fill="#f6b506" d="M18.1 21.7h3.2v.8h-3.2zM20.5 25.3h4.4v.8h-4.4zM7.3 26.5h3.2v.8H7.3zM12.1 26.5h3.2v.8h-3.2zM18.1 26.5h2v.8h-2z" style="stroke-width:1.2"/>
</svg>
