<svg xmlns="http://www.w3.org/2000/svg" viewBox="-5 -5 35 35">
  <circle cx="7.7" cy="-1.9" r=".3" style="stroke-width:1.2"/>
  <path stroke="#000" stroke-linecap="round" stroke-width=".3" d="m10.1-1.9 7.2 7.2"/>
  <circle cx="10.1" cy="-1.9" r=".2" style="stroke-width:1.2"/>
  <circle cx="14.9" cy="-1.9" r=".5" style="stroke-width:1.2"/>
  <circle cx="17.3" cy="-1.9" r=".2" style="stroke-width:1.2"/>
  <circle cx="11.3" cy="-.7" r=".4" style="stroke-width:1.2"/>
  <circle cx="12.5" cy="-.7" r=".4" style="stroke-width:1.2"/>
  <path stroke="#000" stroke-linecap="round" stroke-width=".2" d="M13.7-.7 14.9.5"/>
  <circle cx="13.7" cy="-.7" r=".3" style="stroke-width:1.2"/>
  <path stroke="#000" stroke-linecap="round" stroke-width=".2" d="m14.9-.7 2.4 2.4"/>
  <circle cx="14.9" cy="-.7" r=".3" style="stroke-width:1.2"/>
  <circle cx="17.3" cy="-.7" r=".3" style="stroke-width:1.2"/>
  <path stroke="#000" stroke-linecap="round" stroke-width=".4" d="m7.7.5 4.8 4.8"/>
  <circle cx="7.7" cy=".5" r=".2" style="stroke-width:1.2"/>
  <path stroke="#000" stroke-linecap="round" stroke-width=".3" d="m8.9.5 1.2 1.2"/>
  <circle cx="8.9" cy=".5" r=".3" style="stroke-width:1.2"/>
  <circle cx="12.5" cy=".5" r=".2" style="stroke-width:1.2"/>
  <circle cx="14.9" cy=".5" r=".4" style="stroke-width:1.2"/>
  <circle cx="16.1" cy=".5" r=".3" style="stroke-width:1.2"/>
  <circle cx="17.3" cy=".5" r=".5" style="stroke-width:1.2"/>
  <circle cx="1.7" cy="1.7" r="1.8" style="stroke-width:1.2"/>
  <circle cx="1.7" cy="1.7" r="3.6" fill="none" stroke="#000" stroke-dasharray="0.5, 0.5" stroke-width=".2"/>
  <circle cx="5.3" cy="1.7" r=".6" style="stroke-width:1.2"/>
  <circle cx="-1.9" cy="1.7" r=".6" style="stroke-width:1.2"/>
  <circle cx="1.7" cy="5.3" r=".6" style="stroke-width:1.2"/>
  <circle cx="1.7" cy="-1.9" r=".6" style="stroke-width:1.2"/>
  <circle cx="8.9" cy="1.7" r=".2" style="stroke-width:1.2"/>
  <circle cx="10.1" cy="1.7" r=".5" style="stroke-width:1.2"/>
  <circle cx="11.3" cy="1.7" r=".5" style="stroke-width:1.2"/>
  <path stroke="#000" stroke-linecap="round" stroke-width=".3" d="M13.7 1.7 14.9.5"/>
  <circle cx="13.7" cy="1.7" r=".2" style="stroke-width:1.2"/>
  <path stroke="#000" stroke-linecap="round" stroke-width=".2" d="m14.9 1.7 2.4-2.4"/>
  <circle cx="14.9" cy="1.7" r=".5" style="stroke-width:1.2"/>
  <circle cx="17.3" cy="1.7" r=".4" style="stroke-width:1.2"/>
  <circle cx="23.3" cy="1.7" r="1.8" style="stroke-width:1.2"/>
  <circle cx="23.3" cy="1.7" r="3.6" fill="none" stroke="#000" stroke-dasharray="0.5, 0.5" stroke-width=".2"/>
  <circle cx="26.9" cy="1.7" r=".6" style="stroke-width:1.2"/>
  <circle cx="19.7" cy="1.7" r=".6" style="stroke-width:1.2"/>
  <circle cx="23.3" cy="5.3" r=".6" style="stroke-width:1.2"/>
  <circle cx="23.3" cy="-1.9" r=".6" style="stroke-width:1.2"/>
  <path stroke="#000" stroke-linecap="round" stroke-width=".1" d="m8.9 2.9 1.2-1.2"/>
  <circle cx="8.9" cy="2.9" r=".3" style="stroke-width:1.2"/>
  <path stroke="#000" stroke-linecap="round" stroke-width=".3" d="m10.1 2.9 4.8-4.8"/>
  <circle cx="10.1" cy="2.9" r=".2" style="stroke-width:1.2"/>
  <circle cx="14.9" cy="2.9" r=".5" style="stroke-width:1.2"/>
  <circle cx="11.3" cy="4.1" r=".5" style="stroke-width:1.2"/>
  <path stroke="#000" stroke-linecap="round" stroke-width=".3" d="m13.7 4.1 4.8 4.8"/>
  <circle cx="13.7" cy="4.1" r=".4" style="stroke-width:1.2"/>
  <circle cx="16.1" cy="4.1" r=".3" style="stroke-width:1.2"/>
  <path stroke="#000" stroke-linecap="round" stroke-width=".3" d="m7.7 5.3 4.8 4.8"/>
  <circle cx="7.7" cy="5.3" r=".5" style="stroke-width:1.2"/>
  <path stroke="#000" stroke-linecap="round" stroke-width=".3" d="m10.1 5.3 1.2 1.2"/>
  <circle cx="10.1" cy="5.3" r=".4" style="stroke-width:1.2"/>
  <circle cx="12.5" cy="5.3" r=".3" style="stroke-width:1.2"/>
  <path stroke="#000" stroke-linecap="round" stroke-width=".2" d="m14.9 5.3 1.2-1.2"/>
  <circle cx="14.9" cy="5.3" r=".3" style="stroke-width:1.2"/>
  <circle cx="17.3" cy="5.3" r=".3" style="stroke-width:1.2"/>
  <path stroke="#000" stroke-linecap="round" stroke-width=".3" d="m7.7 6.5 1.2 1.2"/>
  <circle cx="7.7" cy="6.5" r=".4" style="stroke-width:1.2"/>
  <path stroke="#000" stroke-linecap="round" stroke-width=".2" d="m8.9 6.5 2.4-2.4"/>
  <circle cx="8.9" cy="6.5" r=".3" style="stroke-width:1.2"/>
  <circle cx="11.3" cy="6.5" r=".5" style="stroke-width:1.2"/>
  <path stroke="#000" stroke-linecap="round" stroke-width=".3" d="m12.5 6.5 3.6 3.6"/>
  <circle cx="12.5" cy="6.5" r=".3" style="stroke-width:1.2"/>
  <circle cx="14.9" cy="6.5" r=".4" style="stroke-width:1.2"/>
  <circle cx="16.1" cy="6.5" r=".2" style="stroke-width:1.2"/>
  <path stroke="#000" stroke-linecap="round" stroke-width=".2" d="m-1.9 7.7 4.8 4.8"/>
  <circle cx="-1.9" cy="7.7" r=".5" style="stroke-width:1.2"/>
  <path stroke="#000" stroke-linecap="round" stroke-width=".3" d="m.5 7.7 1.2 1.2"/>
  <circle cx=".5" cy="7.7" r=".4" style="stroke-width:1.2"/>
  <circle cx="4.1" cy="7.7" r=".3" style="stroke-width:1.2"/>
  <path stroke="#000" stroke-linecap="round" stroke-width=".3" d="m5.3 7.7 2.4 2.4"/>
  <circle cx="5.3" cy="7.7" r=".5" style="stroke-width:1.2"/>
  <circle cx="8.9" cy="7.7" r=".3" style="stroke-width:1.2"/>
  <circle cx="10.1" cy="7.7" r=".5" style="stroke-width:1.2"/>
  <path stroke="#000" stroke-linecap="round" stroke-width=".1" d="m13.7 7.7 1.2-1.2"/>
  <circle cx="13.7" cy="7.7" r=".3" style="stroke-width:1.2"/>
  <path stroke="#000" stroke-linecap="round" stroke-width=".2" d="m14.9 7.7 2.4-2.4"/>
  <circle cx="14.9" cy="7.7" r=".2" style="stroke-width:1.2"/>
  <circle cx="17.3" cy="7.7" r=".5" style="stroke-width:1.2"/>
  <circle cx="18.5" cy="7.7" r=".5" style="stroke-width:1.2"/>
  <path stroke="#000" stroke-linecap="round" stroke-width=".3" d="m19.7 7.7 2.4 2.4"/>
  <circle cx="19.7" cy="7.7" r=".2" style="stroke-width:1.2"/>
  <circle cx="24.5" cy="7.7" r=".5" style="stroke-width:1.2"/>
  <circle cx="26.9" cy="7.7" r=".3" style="stroke-width:1.2"/>
  <path stroke="#000" stroke-linecap="round" stroke-width=".3" d="m-1.9 8.9 4.8 4.8"/>
  <circle cx="-1.9" cy="8.9" r=".3" style="stroke-width:1.2"/>
  <path stroke="#000" stroke-linecap="round" stroke-width=".2" d="M-.7 8.9.5 7.7"/>
  <circle cx="-.7" cy="8.9" r=".5" style="stroke-width:1.2"/>
  <path stroke="#000" stroke-linecap="round" stroke-width=".3" d="m.5 8.9 2.4 2.4"/>
  <circle cx=".5" cy="8.9" r=".2" style="stroke-width:1.2"/>
  <circle cx="1.7" cy="8.9" r=".2" style="stroke-width:1.2"/>
  <circle cx="6.5" cy="8.9" r=".3" style="stroke-width:1.2"/>
  <circle cx="8.9" cy="8.9" r=".3" style="stroke-width:1.2"/>
  <circle cx="11.3" cy="8.9" r=".5" style="stroke-width:1.2"/>
  <circle cx="14.9" cy="8.9" r=".3" style="stroke-width:1.2"/>
  <circle cx="17.3" cy="8.9" r=".4" style="stroke-width:1.2"/>
  <path stroke="#000" stroke-linecap="round" stroke-width=".2" d="m18.5 8.9 1.2-1.2"/>
  <circle cx="18.5" cy="8.9" r=".5" style="stroke-width:1.2"/>
  <circle cx="20.9" cy="8.9" r=".3" style="stroke-width:1.2"/>
  <path stroke="#000" stroke-linecap="round" stroke-width=".3" d="M-.7 10.1.5 8.9"/>
  <circle cx="-.7" cy="10.1" r=".3" style="stroke-width:1.2"/>
  <path stroke="#000" stroke-linecap="round" stroke-width=".1" d="m.5 10.1 1.2-1.2"/>
  <circle cx=".5" cy="10.1" r=".3" style="stroke-width:1.2"/>
  <circle cx="1.7" cy="10.1" r=".5" style="stroke-width:1.2"/>
  <path stroke="#000" stroke-linecap="round" stroke-width=".2" d="m5.3 10.1 3.6 3.6"/>
  <circle cx="5.3" cy="10.1" r=".3" style="stroke-width:1.2"/>
  <circle cx="7.7" cy="10.1" r=".2" style="stroke-width:1.2"/>
  <circle cx="8.9" cy="10.1" r=".3" style="stroke-width:1.2"/>
  <circle cx="12.5" cy="10.1" r=".5" style="stroke-width:1.2"/>
  <path stroke="#000" stroke-linecap="round" stroke-width=".2" d="m16.1 10.1 2.4-2.4"/>
  <circle cx="16.1" cy="10.1" r=".3" style="stroke-width:1.2"/>
  <circle cx="22.1" cy="10.1" r=".3" style="stroke-width:1.2"/>
  <circle cx="23.3" cy="10.1" r=".2" style="stroke-width:1.2"/>
  <circle cx="26.9" cy="10.1" r=".5" style="stroke-width:1.2"/>
  <circle cx=".5" cy="11.3" r=".3" style="stroke-width:1.2"/>
  <circle cx="1.7" cy="11.3" r=".5" style="stroke-width:1.2"/>
  <circle cx="2.9" cy="11.3" r=".4" style="stroke-width:1.2"/>
  <path stroke="#000" stroke-linecap="round" stroke-width=".1" d="m4.1 11.3 1.2 1.2"/>
  <circle cx="4.1" cy="11.3" r=".4" style="stroke-width:1.2"/>
  <circle cx="6.5" cy="11.3" r=".5" style="stroke-width:1.2"/>
  <path stroke="#000" stroke-linecap="round" stroke-width=".1" d="m11.3 11.3 1.2-1.2"/>
  <path stroke="#000" stroke-linecap="round" stroke-width=".2" d="m11.3 11.3 1.2 1.2"/>
  <circle cx="11.3" cy="11.3" r=".5" style="stroke-width:1.2"/>
  <circle cx="16.1" cy="11.3" r=".4" style="stroke-width:1.2"/>
  <circle cx="19.7" cy="11.3" r=".3" style="stroke-width:1.2"/>
  <path stroke="#000" stroke-linecap="round" stroke-width=".2" d="m22.1 11.3 1.2-1.2M22.1 11.3l3.6 3.6"/>
  <circle cx="22.1" cy="11.3" r=".4" style="stroke-width:1.2"/>
  <circle cx="25.7" cy="11.3" r=".3" style="stroke-width:1.2"/>
  <path stroke="#000" stroke-linecap="round" stroke-width=".3" d="m-.7 12.5 2.4-2.4"/>
  <circle cx="-.7" cy="12.5" r=".5" style="stroke-width:1.2"/>
  <path stroke="#000" stroke-linecap="round" stroke-width=".2" d="m1.7 12.5 1.2-1.2"/>
  <circle cx="1.7" cy="12.5" r=".5" style="stroke-width:1.2"/>
  <path stroke="#000" stroke-linecap="round" stroke-width=".3" d="m2.9 12.5 3.6-3.6"/>
  <circle cx="2.9" cy="12.5" r=".5" style="stroke-width:1.2"/>
  <path stroke="#000" stroke-linecap="round" stroke-width=".2" d="m5.3 12.5 9.6-9.6"/>
  <circle cx="5.3" cy="12.5" r=".2" style="stroke-width:1.2"/>
  <path stroke="#000" stroke-linecap="round" stroke-width=".2" d="m6.5 12.5 3.6 3.6"/>
  <circle cx="6.5" cy="12.5" r=".4" style="stroke-width:1.2"/>
  <circle cx="7.7" cy="12.5" r=".5" style="stroke-width:1.2"/>
  <circle cx="8.9" cy="12.5" r=".4" style="stroke-width:1.2"/>
  <circle cx="12.5" cy="12.5" r=".5" style="stroke-width:1.2"/>
  <path stroke="#000" stroke-linecap="round" stroke-width=".2" d="m13.7 12.5 2.4 2.4"/>
  <circle cx="13.7" cy="12.5" r=".3" style="stroke-width:1.2"/>
  <path stroke="#000" stroke-linecap="round" stroke-width=".4" d="m14.9 12.5 1.2-1.2"/>
  <circle cx="14.9" cy="12.5" r=".4" style="stroke-width:1.2"/>
  <path stroke="#000" stroke-linecap="round" stroke-width=".1" d="m16.1 12.5 2.4 2.4"/>
  <circle cx="16.1" cy="12.5" r=".5" style="stroke-width:1.2"/>
  <circle cx="22.1" cy="12.5" r=".4" style="stroke-width:1.2"/>
  <circle cx="23.3" cy="12.5" r=".4" style="stroke-width:1.2"/>
  <path stroke="#000" stroke-linecap="round" stroke-width=".2" d="m24.5 12.5 2.4-2.4"/>
  <circle cx="24.5" cy="12.5" r=".3" style="stroke-width:1.2"/>
  <path stroke="#000" stroke-linecap="round" stroke-width=".1" d="m25.7 12.5 1.2 1.2"/>
  <circle cx="25.7" cy="12.5" r=".4" style="stroke-width:1.2"/>
  <path stroke="#000" stroke-linecap="round" stroke-width=".2" d="m-.7 13.7 2.4 2.4"/>
  <circle cx="-.7" cy="13.7" r=".2" style="stroke-width:1.2"/>
  <circle cx="2.9" cy="13.7" r=".2" style="stroke-width:1.2"/>
  <circle cx="7.7" cy="13.7" r=".3" style="stroke-width:1.2"/>
  <circle cx="8.9" cy="13.7" r=".5" style="stroke-width:1.2"/>
  <path stroke="#000" stroke-linecap="round" stroke-width=".2" d="m11.3 13.7 1.2-1.2"/>
  <circle cx="11.3" cy="13.7" r=".2" style="stroke-width:1.2"/>
  <path stroke="#000" stroke-linecap="round" stroke-width=".1" d="m12.5 13.7 1.2-1.2"/>
  <circle cx="12.5" cy="13.7" r=".3" style="stroke-width:1.2"/>
  <path stroke="#000" stroke-linecap="round" stroke-width=".3" d="m14.9 13.7 1.2-1.2"/>
  <circle cx="14.9" cy="13.7" r=".5" style="stroke-width:1.2"/>
  <circle cx="17.3" cy="13.7" r=".2" style="stroke-width:1.2"/>
  <circle cx="18.5" cy="13.7" r=".2" style="stroke-width:1.2"/>
  <path stroke="#000" stroke-linecap="round" stroke-width=".3" d="m20.9 13.7 1.2-1.2"/>
  <circle cx="20.9" cy="13.7" r=".5" style="stroke-width:1.2"/>
  <path stroke="#000" stroke-linecap="round" stroke-width=".3" d="m22.1 13.7 1.2-1.2"/>
  <circle cx="22.1" cy="13.7" r=".3" style="stroke-width:1.2"/>
  <path stroke="#000" stroke-linecap="round" stroke-width=".3" d="m24.5 13.7 1.2-1.2"/>
  <circle cx="24.5" cy="13.7" r=".4" style="stroke-width:1.2"/>
  <circle cx="26.9" cy="13.7" r=".4" style="stroke-width:1.2"/>
  <path stroke="#000" stroke-linecap="round" stroke-width=".2" d="m-1.9 14.9 1.2-1.2"/>
  <circle cx="-1.9" cy="14.9" r=".3" style="stroke-width:1.2"/>
  <path stroke="#000" stroke-linecap="round" stroke-width=".2" d="m-.7 14.9 1.2 1.2"/>
  <circle cx="-.7" cy="14.9" r=".3" style="stroke-width:1.2"/>
  <circle cx=".5" cy="14.9" r=".5" style="stroke-width:1.2"/>
  <circle cx="1.7" cy="14.9" r=".5" style="stroke-width:1.2"/>
  <circle cx="2.9" cy="14.9" r=".5" style="stroke-width:1.2"/>
  <path stroke="#000" stroke-linecap="round" stroke-width=".2" d="m5.3 14.9 4.8 4.8"/>
  <circle cx="5.3" cy="14.9" r=".4" style="stroke-width:1.2"/>
  <path stroke="#000" stroke-linecap="round" stroke-width=".2" d="m6.5 14.9 2.4-2.4"/>
  <circle cx="6.5" cy="14.9" r=".4" style="stroke-width:1.2"/>
  <path stroke="#000" stroke-linecap="round" stroke-width=".3" d="m7.7 14.9 1.2 1.2"/>
  <circle cx="7.7" cy="14.9" r=".2" style="stroke-width:1.2"/>
  <circle cx="8.9" cy="14.9" r=".3" style="stroke-width:1.2"/>
  <path stroke="#000" stroke-linecap="round" stroke-width=".2" d="m14.9 14.9 2.4 2.4"/>
  <circle cx="14.9" cy="14.9" r=".5" style="stroke-width:1.2"/>
  <circle cx="16.1" cy="14.9" r=".4" style="stroke-width:1.2"/>
  <circle cx="17.3" cy="14.9" r=".2" style="stroke-width:1.2"/>
  <circle cx="18.5" cy="14.9" r=".5" style="stroke-width:1.2"/>
  <circle cx="24.5" cy="14.9" r=".4" style="stroke-width:1.2"/>
  <path stroke="#000" stroke-linecap="round" stroke-width=".3" d="m25.7 14.9 1.2-1.2"/>
  <circle cx="25.7" cy="14.9" r=".3" style="stroke-width:1.2"/>
  <circle cx="26.9" cy="14.9" r=".4" style="stroke-width:1.2"/>
  <path stroke="#000" stroke-linecap="round" stroke-width=".3" d="m-1.9 16.1 1.2-1.2"/>
  <path stroke="#000" stroke-linecap="round" stroke-width=".1" d="m-1.9 16.1 1.2 1.2"/>
  <circle cx="-1.9" cy="16.1" r=".3" style="stroke-width:1.2"/>
  <circle cx=".5" cy="16.1" r=".3" style="stroke-width:1.2"/>
  <path stroke="#000" stroke-linecap="round" stroke-width=".2" d="m1.7 16.1 1.2-1.2"/>
  <circle cx="1.7" cy="16.1" r=".5" style="stroke-width:1.2"/>
  <circle cx="6.5" cy="16.1" r=".5" style="stroke-width:1.2"/>
  <circle cx="8.9" cy="16.1" r=".3" style="stroke-width:1.2"/>
  <circle cx="10.1" cy="16.1" r=".5" style="stroke-width:1.2"/>
  <path stroke="#000" stroke-linecap="round" stroke-width=".1" d="m11.3 16.1 1.2 1.2"/>
  <circle cx="11.3" cy="16.1" r=".5" style="stroke-width:1.2"/>
  <path stroke="#000" stroke-linecap="round" stroke-width=".3" d="m12.5 16.1 6 6"/>
  <circle cx="12.5" cy="16.1" r=".3" style="stroke-width:1.2"/>
  <path stroke="#000" stroke-linecap="round" stroke-width=".1" d="m13.7 16.1 1.2 1.2"/>
  <circle cx="13.7" cy="16.1" r=".4" style="stroke-width:1.2"/>
  <path stroke="#000" stroke-linecap="round" stroke-width=".3" d="m14.9 16.1 2.4 2.4"/>
  <circle cx="14.9" cy="16.1" r=".3" style="stroke-width:1.2"/>
  <circle cx="16.1" cy="16.1" r=".3" style="stroke-width:1.2"/>
  <path stroke="#000" stroke-linecap="round" stroke-width=".2" d="m22.1 16.1 1.2 1.2"/>
  <circle cx="22.1" cy="16.1" r=".3" style="stroke-width:1.2"/>
  <circle cx="-1.9" cy="17.3" r=".2" style="stroke-width:1.2"/>
  <path stroke="#000" stroke-linecap="round" stroke-width=".3" d="m-.7 17.3 3.6-3.6"/>
  <circle cx="-.7" cy="17.3" r=".3" style="stroke-width:1.2"/>
  <circle cx="4.1" cy="17.3" r=".3" style="stroke-width:1.2"/>
  <path stroke="#000" stroke-linecap="round" stroke-width=".3" d="m5.3 17.3 3.6-3.6"/>
  <circle cx="5.3" cy="17.3" r=".4" style="stroke-width:1.2"/>
  <circle cx="6.5" cy="17.3" r=".3" style="stroke-width:1.2"/>
  <path stroke="#000" stroke-linecap="round" stroke-width=".4" d="m7.7 17.3 1.2-1.2"/>
  <circle cx="7.7" cy="17.3" r=".5" style="stroke-width:1.2"/>
  <path stroke="#000" stroke-linecap="round" stroke-width=".3" d="m8.9 17.3 1.2-1.2M8.9 17.3l2.4 2.4"/>
  <circle cx="8.9" cy="17.3" r=".3" style="stroke-width:1.2"/>
  <path stroke="#000" stroke-linecap="round" stroke-width=".3" d="m12.5 17.3 2.4-2.4"/>
  <circle cx="12.5" cy="17.3" r=".2" style="stroke-width:1.2"/>
  <path stroke="#000" stroke-linecap="round" stroke-width=".2" d="m13.7 17.3 3.6-3.6"/>
  <circle cx="13.7" cy="17.3" r=".5" style="stroke-width:1.2"/>
  <path stroke="#000" stroke-linecap="round" stroke-width=".3" d="m14.9 17.3 3.6-3.6"/>
  <circle cx="14.9" cy="17.3" r=".3" style="stroke-width:1.2"/>
  <circle cx="16.1" cy="17.3" r=".4" style="stroke-width:1.2"/>
  <circle cx="17.3" cy="17.3" r=".3" style="stroke-width:1.2"/>
  <circle cx="18.5" cy="17.3" r=".2" style="stroke-width:1.2"/>
  <circle cx="19.7" cy="17.3" r=".3" style="stroke-width:1.2"/>
  <path stroke="#000" stroke-linecap="round" stroke-width=".3" d="m20.9 17.3 1.2-1.2M20.9 17.3l1.2 1.2"/>
  <circle cx="20.9" cy="17.3" r=".4" style="stroke-width:1.2"/>
  <path stroke="#000" stroke-linecap="round" stroke-width=".3" d="m22.1 17.3 1.2 1.2"/>
  <circle cx="22.1" cy="17.3" r=".4" style="stroke-width:1.2"/>
  <circle cx="23.3" cy="17.3" r=".4" style="stroke-width:1.2"/>
  <path stroke="#000" stroke-linecap="round" stroke-width=".3" d="m24.5 17.3 2.4 2.4"/>
  <circle cx="24.5" cy="17.3" r=".3" style="stroke-width:1.2"/>
  <path stroke="#000" stroke-linecap="round" stroke-width=".3" d="m25.7 17.3 1.2 1.2"/>
  <circle cx="25.7" cy="17.3" r=".2" style="stroke-width:1.2"/>
  <circle cx="26.9" cy="17.3" r=".2" style="stroke-width:1.2"/>
  <circle cx="8.9" cy="18.5" r=".3" style="stroke-width:1.2"/>
  <circle cx="10.1" cy="18.5" r=".3" style="stroke-width:1.2"/>
  <circle cx="14.9" cy="18.5" r=".4" style="stroke-width:1.2"/>
  <circle cx="17.3" cy="18.5" r=".3" style="stroke-width:1.2"/>
  <path stroke="#000" stroke-linecap="round" stroke-width=".2" d="m22.1 18.5 1.2-1.2"/>
  <circle cx="22.1" cy="18.5" r=".5" style="stroke-width:1.2"/>
  <circle cx="23.3" cy="18.5" r=".4" style="stroke-width:1.2"/>
  <path stroke="#000" stroke-linecap="round" stroke-width=".2" d="m25.7 18.5 1.2-1.2"/>
  <circle cx="25.7" cy="18.5" r=".4" style="stroke-width:1.2"/>
  <circle cx="26.9" cy="18.5" r=".5" style="stroke-width:1.2"/>
  <circle cx="8.9" cy="19.7" r=".3" style="stroke-width:1.2"/>
  <circle cx="10.1" cy="19.7" r=".3" style="stroke-width:1.2"/>
  <circle cx="11.3" cy="19.7" r=".3" style="stroke-width:1.2"/>
  <path stroke="#000" stroke-linecap="round" stroke-width=".3" d="m12.5 19.7 1.2 1.2"/>
  <circle cx="12.5" cy="19.7" r=".3" style="stroke-width:1.2"/>
  <path stroke="#000" stroke-linecap="round" stroke-width=".2" d="m13.7 19.7 2.4-2.4"/>
  <circle cx="13.7" cy="19.7" r=".2" style="stroke-width:1.2"/>
  <path stroke="#000" stroke-linecap="round" stroke-width=".3" d="m14.9 19.7 2.4 2.4"/>
  <circle cx="14.9" cy="19.7" r=".5" style="stroke-width:1.2"/>
  <path stroke="#000" stroke-linecap="round" stroke-width=".3" d="m16.1 19.7 2.4-2.4"/>
  <circle cx="16.1" cy="19.7" r=".3" style="stroke-width:1.2"/>
  <circle cx="17.3" cy="19.7" r=".4" style="stroke-width:1.2"/>
  <circle cx="19.7" cy="19.7" r=".5" style="stroke-width:1.2"/>
  <path stroke="#000" stroke-linecap="round" stroke-width=".3" d="m22.1 19.7 2.4-2.4"/>
  <circle cx="22.1" cy="19.7" r=".4" style="stroke-width:1.2"/>
  <circle cx="26.9" cy="19.7" r=".2" style="stroke-width:1.2"/>
  <path stroke="#000" stroke-linecap="round" stroke-width=".3" d="m7.7 20.9 2.4-2.4"/>
  <circle cx="7.7" cy="20.9" r=".5" style="stroke-width:1.2"/>
  <path stroke="#000" stroke-linecap="round" stroke-width=".1" d="m8.9 20.9 1.2-1.2M8.9 20.9l2.4 2.4"/>
  <circle cx="8.9" cy="20.9" r=".5" style="stroke-width:1.2"/>
  <path stroke="#000" stroke-linecap="round" stroke-width=".3" d="m13.7 20.9 1.2-1.2"/>
  <circle cx="13.7" cy="20.9" r=".2" style="stroke-width:1.2"/>
  <path stroke="#000" stroke-linecap="round" stroke-width=".2" d="m16.1 20.9 1.2-1.2"/>
  <circle cx="16.1" cy="20.9" r=".5" style="stroke-width:1.2"/>
  <circle cx="17.3" cy="20.9" r=".3" style="stroke-width:1.2"/>
  <path stroke="#000" stroke-linecap="round" stroke-width=".1" d="m22.1 20.9 2.4 2.4"/>
  <circle cx="22.1" cy="20.9" r=".5" style="stroke-width:1.2"/>
  <path stroke="#000" stroke-linecap="round" stroke-width=".2" d="m24.5 20.9 2.4 2.4"/>
  <circle cx="24.5" cy="20.9" r=".2" style="stroke-width:1.2"/>
  <circle cx="25.7" cy="20.9" r=".2" style="stroke-width:1.2"/>
  <circle cx="10.1" cy="22.1" r=".3" style="stroke-width:1.2"/>
  <circle cx="16.1" cy="22.1" r=".4" style="stroke-width:1.2"/>
  <circle cx="17.3" cy="22.1" r=".5" style="stroke-width:1.2"/>
  <circle cx="18.5" cy="22.1" r=".4" style="stroke-width:1.2"/>
  <circle cx="19.7" cy="22.1" r=".5" style="stroke-width:1.2"/>
  <path stroke="#000" stroke-linecap="round" stroke-width=".2" d="m20.9 22.1 1.2-1.2"/>
  <circle cx="20.9" cy="22.1" r=".4" style="stroke-width:1.2"/>
  <circle cx="22.1" cy="22.1" r=".4" style="stroke-width:1.2"/>
  <path stroke="#000" stroke-linecap="round" stroke-width=".3" d="m23.3 22.1 1.2-1.2"/>
  <circle cx="23.3" cy="22.1" r=".5" style="stroke-width:1.2"/>
  <path stroke="#000" stroke-linecap="round" stroke-width=".3" d="m24.5 22.1 2.4-2.4"/>
  <circle cx="24.5" cy="22.1" r=".5" style="stroke-width:1.2"/>
  <circle cx="25.7" cy="22.1" r=".5" style="stroke-width:1.2"/>
  <circle cx="1.7" cy="23.3" r="1.8" style="stroke-width:1.2"/>
  <circle cx="1.7" cy="23.3" r="3.6" fill="none" stroke="#000" stroke-dasharray="0.5, 0.5" stroke-width=".2"/>
  <circle cx="5.3" cy="23.3" r=".6" style="stroke-width:1.2"/>
  <circle cx="-1.9" cy="23.3" r=".6" style="stroke-width:1.2"/>
  <circle cx="1.7" cy="26.9" r=".6" style="stroke-width:1.2"/>
  <circle cx="1.7" cy="19.7" r=".6" style="stroke-width:1.2"/>
  <path stroke="#000" stroke-linecap="round" stroke-width=".2" d="m8.9 23.3 1.2 1.2"/>
  <circle cx="8.9" cy="23.3" r=".2" style="stroke-width:1.2"/>
  <circle cx="10.1" cy="23.3" r=".2" style="stroke-width:1.2"/>
  <circle cx="11.3" cy="23.3" r=".3" style="stroke-width:1.2"/>
  <path stroke="#000" stroke-linecap="round" stroke-width=".1" d="m14.9 23.3 2.4-2.4"/>
  <circle cx="14.9" cy="23.3" r=".4" style="stroke-width:1.2"/>
  <circle cx="16.1" cy="23.3" r=".4" style="stroke-width:1.2"/>
  <circle cx="24.5" cy="23.3" r=".3" style="stroke-width:1.2"/>
  <circle cx="26.9" cy="23.3" r=".3" style="stroke-width:1.2"/>
  <path stroke="#000" stroke-linecap="round" stroke-width=".3" d="m7.7 24.5 2.4-2.4M7.7 24.5l2.4 2.4"/>
  <circle cx="7.7" cy="24.5" r=".2" style="stroke-width:1.2"/>
  <circle cx="10.1" cy="24.5" r=".2" style="stroke-width:1.2"/>
  <circle cx="14.9" cy="24.5" r=".4" style="stroke-width:1.2"/>
  <path stroke="#000" stroke-linecap="round" stroke-width=".3" d="m23.3 24.5 1.2 1.2"/>
  <circle cx="23.3" cy="24.5" r=".4" style="stroke-width:1.2"/>
  <circle cx="8.9" cy="25.7" r=".4" style="stroke-width:1.2"/>
  <path stroke="#000" stroke-linecap="round" stroke-width=".2" d="m13.7 25.7 1.2 1.2"/>
  <circle cx="13.7" cy="25.7" r=".4" style="stroke-width:1.2"/>
  <path stroke="#000" stroke-linecap="round" stroke-width=".2" d="m17.3 25.7 1.2 1.2"/>
  <circle cx="17.3" cy="25.7" r=".5" style="stroke-width:1.2"/>
  <path stroke="#000" stroke-linecap="round" stroke-width=".3" d="m20.9 25.7 1.2 1.2"/>
  <circle cx="20.9" cy="25.7" r=".3" style="stroke-width:1.2"/>
  <path stroke="#000" stroke-linecap="round" stroke-width=".1" d="m22.1 25.7 3.6-3.6"/>
  <circle cx="22.1" cy="25.7" r=".3" style="stroke-width:1.2"/>
  <path stroke="#000" stroke-linecap="round" stroke-width=".3" d="m23.3 25.7 1.2 1.2"/>
  <circle cx="23.3" cy="25.7" r=".5" style="stroke-width:1.2"/>
  <circle cx="24.5" cy="25.7" r=".4" style="stroke-width:1.2"/>
  <path stroke="#000" stroke-linecap="round" stroke-width=".2" d="m7.7 26.9 3.6-3.6"/>
  <circle cx="7.7" cy="26.9" r=".4" style="stroke-width:1.2"/>
  <circle cx="8.9" cy="26.9" r=".4" style="stroke-width:1.2"/>
  <circle cx="10.1" cy="26.9" r=".3" style="stroke-width:1.2"/>
  <path stroke="#000" stroke-linecap="round" stroke-width=".2" d="m12.5 26.9 4.8-4.8"/>
  <circle cx="12.5" cy="26.9" r=".2" style="stroke-width:1.2"/>
  <circle cx="13.7" cy="26.9" r=".2" style="stroke-width:1.2"/>
  <circle cx="14.9" cy="26.9" r=".5" style="stroke-width:1.2"/>
  <circle cx="18.5" cy="26.9" r=".4" style="stroke-width:1.2"/>
  <path stroke="#000" stroke-linecap="round" stroke-width=".2" d="m19.7 26.9 1.2-1.2"/>
  <circle cx="19.7" cy="26.9" r=".3" style="stroke-width:1.2"/>
  <path stroke="#000" stroke-linecap="round" stroke-width=".3" d="m22.1 26.9 1.2-1.2"/>
  <circle cx="22.1" cy="26.9" r=".2" style="stroke-width:1.2"/>
  <circle cx="24.5" cy="26.9" r=".4" style="stroke-width:1.2"/>
  <circle cx="26.9" cy="26.9" r=".5" style="stroke-width:1.2"/>
</svg>
